<?xml version="1.0" encoding="utf-8"?>
<!-- Generator: Adobe Illustrator 17.1.0, SVG Export Plug-In . SVG Version: 6.00 Build 0)  -->
<!DOCTYPE svg PUBLIC "-//W3C//DTD SVG 1.1//EN" "http://www.w3.org/Graphics/SVG/1.1/DTD/svg11.dtd">
<svg version="1.1" id="Layer_1" xmlns="http://www.w3.org/2000/svg" xmlns:xlink="http://www.w3.org/1999/xlink" x="0px" y="0px"
	 viewBox="0 0 612 792" enable-background="new 0 0 612 792" xml:space="preserve">
<g>
	<g opacity="0.25">
		<path fill="#010101" d="M151.3,332.9c-0.2-2.8-0.4-5.5-0.6-8.3c-0.1-1-0.5-2.6-1.2-2.5c-0.3,0-0.6,0.3-1,1.2
			c-0.7,1.2-0.5,3.7-0.6,4.4c-0.3,1.8-1.3,3.4-1.1,5.5c0.1,1.7,0.4,3.3,0.5,4.1c0.6,2.5,1.3,5,1.9,7.5c0.5,6.8,1,13.5,1.5,20.3
			c0,1.8-1,1.9-4.7,2.4c-1.9,0.3-1.4-3.3-4.7-2.8c-0.7,0.9-0.9,2.2-0.7,3.7c0.1,1,0.3,2.3,0.7,3.4c0.6,1.8,2,3.3,3,5.6
			c0.7,1.8,1.1,4.4,1.2,6c0.4,5-2.3,7.9-5.9,8.4c-3.4,0.1-7-2.8-7.4-7.3c-0.3-3.9,0.8-5.8,0.2-17.2c-0.1-1-0.4-3.2-1.2-3
			c-0.3,0-0.7,0.5-1.1,1.4c-0.7,2.2-2,4.3-3.5,4.5c-1.6,0.2-3.4-1.7-4.4-4.5c-1.2-3-1.8-8.9-3.2-12.4c-0.8-2.4-1.2-5-2-6.9
			c-1-2.9-2.2-4.7-2.4-5.9c-0.3-3,0.4-5.2,2.2-8.6c-0.5-5.5-1-11-1.5-16.5c-0.7-7.4-2.6-13.5-4.1-20.1c-1.4-6.5-2-13.6-3.1-20.6
			c-0.1-1.5-0.3-3-0.4-4.6c-0.3-3-0.1-6.2,2.6-7.3c1.7-0.5,10.1-2.2,12.1-2.5c1.9,0.1,3.8,0.2,5.6,0.3c0.3,0,5.3-0.6,7.1-0.9
			c4.9-0.7,7.3-2.8,11.6-3.3c4-0.5,7.9,1.3,11.9,1.3c3,0,7.7-1,9.5-0.5c0.8,0.6,1.6,1.2,2.4,1.8c1.4,0.2,3.3-0.1,4.2,0.3
			c0.6,0.4,0.4,1.8,1.7,2c0.6,0.2,1.9,0.1,3.3-0.1c1.4-0.1,3.1-0.3,5,0c1.2,0.1,1.8,1.2,3.4,1.9c2.1,1,2.5,2.6,2.6,4.5
			c0,1.3,0,2.6,0.1,3.8c0,0.9,0.1,1.7,0.4,2.4c1.2,3,2.9,5.5,3.1,9.6c0.3,5.9-1.6,13.2-5.1,18.3c-2,2.9-3,3.2-3.3,5.8
			c-0.1,0.4-0.1,0.9-0.1,1.4c0.1,1.4,0.5,3.3,0.6,4.4c0.1,1.7-1,4.5-0.8,6.8c0.2,2.7,0.3,5.7-3.6,6.1c-1.8,0.2-2.7-0.6-3.1-2
			c-0.4-1.8-1.4-3.4-1.7-5.6c-0.4-1.8-0.3-4.2-3-3.9c-2.7,0.3-11.2,4.9-11.4,8.9c0.2,3.4,0.5,6.7,0.7,10.1c0.4,5.6-2.7,6.4-4.8,6.6
			C154.8,341,152,337.3,151.3,332.9z M141,299c3.8-0.5,7.7-1,11.5-1.5c1.1-0.1,1.9-1.8,3.6-2.9c1.5-0.7,3.8-0.6,4.8-1.7
			c1-1,1.7-2.4,1.6-3.1c-0.2-2.8-3.5-4.5-6.7-4.1c-2,0.2-3.4,1.7-3.3,3.2c0,0.3,0,0.5,0.2,0.9c0.1,1.1-2.4,2.7-4.1,3
			c-0.9,0.1-1.4-0.1-1.7-4c-0.5-2.4-1.2-5.1-3-4.9c-3.5,0.5-1.5,2.8-3.8,4.1C140.4,291.6,140.7,295.3,141,299z"/>
		<path fill="#010101" d="M153.1,332.6c-0.2-3.1,0.8-9.9-2.4-11.8c-0.6-0.4-1.4-0.4-2.1,0c-1.8,1.1-2.2,3.2-2.2,4.9
			c-0.1,4.1-1.2,7.5-0.7,11.7c0.4,3.1,1.8,6.2,2,8.9c0.4,4.9,0.8,9.8,1.1,14.7c0.1,1.4,0.2,2.7,0.3,4.1c0.1,1.9-3.9-0.7-4.2-1.1
			c-0.8-0.8-1.9-0.9-3.1-1c-0.8,0-1.5,0.3-1.9,1c-1.8,3.6-0.8,7.6,1.1,10.7c2.1,3.4,3.3,7.3,2.7,11.4c-0.6,4.1-5.4,4.6-7.9,2.2
			c-1.3-1.2-1.8-3.1-1.9-4.8c-0.2-2.9,0.3-6,0.4-9c0.1-3,1.2-9.6-1.9-11.5c-0.6-0.4-1.5-0.4-2.1,0.1c-1.1,0.8-3.4,6.3-5,4.5
			c-2.4-2.5-2.5-7.3-3.2-10.4c-0.6-2.8-1.6-5.4-2.3-8.1c-1-3.8-3.5-7.3-3.2-11.3c0.2-2.1,2.4-4.3,2.2-6.2c-0.1-1-0.2-1.9-0.3-2.9
			c-0.3-3.8-0.7-7.6-1-11.3c-1.1-12-4.8-23.4-6.4-35.3c-0.6-4.6-1.3-9.1-1.6-13.8c-0.3-5.6,11-6.6,15.5-6.3
			c3.5,0.2,6.8-0.2,10.4-0.7c3.1-0.4,5.9-1.6,8.7-2.7c4.8-1.8,9.6,0.4,14.3,0.7c2.8,0.2,5.7-0.6,8.5-0.6c1.2,0,1.9,1.5,2.9,1.8
			c1,0.3,2.4,0.2,3.4,0.2c0.4,0,0.8,1.1,1.2,1.4c2.1,1.3,4.2,0.9,6.9,0.6c8.9-0.8,6.8,7.4,8.1,11.8c0.9,3.2,2.7,5.8,3.1,9.2
			c0.4,4-0.7,8.3-2.1,12.2c-2,5.6-6.9,8.9-6.2,14.9c0.3,2.9-0.3,5.4-0.4,8.3c0,1.5,0.1,3-0.1,4.4c-2.4,1.2-3.6,0.9-3.6-0.9
			c-0.5-1.3-0.9-2.6-1.2-3.9c-0.6-2.8-1.2-5.9-5.5-5.1c-4.6,0.9-9.1,4.4-11.5,7.8c-1.7,2.4-0.6,6.2-0.4,8.6c0.1,1.4,0.2,2.7,0.3,4.1
			c0.1,1.7,0,4.3-2.5,4.8C155.1,339.9,153.6,335.1,153.1,332.6c-0.4-1.9-3.9-1.4-3.5,0.5c0.7,3.3,2.1,7.7,6.4,8.7
			c2.7,0.6,6.8,0.1,8.3-2.6c1.5-2.8,1.1-5.7,0.9-8.6c-0.3-5-1.4-8,4.1-11.7c8.1-5.5,5.6,4.2,8.7,7.5c2.3,2.4,6.4,2.1,8.6-0.7
			c1-1.3,1-2.9,1-4.3c0-2.7,0.6-5.3,0.8-7.9c0.2-3.6-1.1-6,1.6-9.5c2.2-2.8,3.6-5.9,4.7-9.1c1.9-5.3,2.3-11.2,0.6-16.4
			c-0.8-2.5-2.5-4.6-2.6-7.3c0-1.7,0.2-3.7-0.3-5.3c-1-3.3-5.1-6.2-9.4-6.1c-0.9,0-5.5,0.6-5.8-0.2c-0.2-0.4-0.5-1-0.9-1.3
			c-1.7-1.2-4-0.2-5.8-1.5c-3.2-2.4-8.8-0.3-12.9-0.6c-3.1-0.2-5.8-1.5-9-1.3c-3.7,0.2-6.7,1.5-10.1,2.7c-4.2,1.5-9.4,1.6-13.7,1.4
			c-4.2-0.2-8.7,1.1-12.9,2c-5.6,1.3-6,5.4-5.8,9.4c0.4,6,1.5,12,2.3,17.9c1.7,12,5.1,23.5,6.2,35.6c0.4,3.9,1.1,6.8-0.5,10.5
			c-2.8,6.4,1.5,11.9,2.9,17.7c1.5,5.7,2,13.9,6.4,18.4c0.7,0.8,2.7,1.6,3.9,1c1.4-0.7,1.7-0.9,2.7-2c1-1.1,1-3.3,2.2-4.1
			c-0.7,0-1.4,0.1-2.1,0.1c1.8,1.1,0.8,7.7,0.8,9.6c0,2.2-0.2,4.4-0.4,6.6c-0.3,4.8,1.3,8.9,6.1,11.1c3.9,1.8,8.9-1.4,10-5
			c1-3.2,0.7-6.6-0.2-9.6c-1.3-4-5.9-8.4-3.5-13c-0.6,0.3-1.3,0.6-1.9,1c2.5,0.1,2.3,3.2,5.1,2.8c2.4-0.3,4.8-0.5,6-2.6
			c0.6-1,0.2-2.5,0.1-3.5c-0.2-2.9-0.4-5.8-0.7-8.6c-0.3-3.5-0.1-7.2-1-10.6c-0.6-2.3-1.2-4.5-1.7-6.8c-0.6-2.4-0.4-5.1,0.3-7.6
			c0.4-1.5-0.2-5.1,1.1-6c-0.7,0-1.4,0-2.1,0c2,1.2,1.1,7.9,1.3,9.8C149.7,335,153.2,334.5,153.1,332.6z"/>
		<path fill="#010101" d="M141.1,300.5c3.2-0.4,6.5-0.9,9.7-1.3c1-0.1,1.9-0.2,2.9-0.6c0.8-0.3,1.5-1.1,2-1.7c1.4-1.4,3.3-1.5,5-2.2
			c4.2-1.6,4-6.3,1.9-8.6c-2.2-2.4-9.2-3.3-11.2,0.4c-1,1.9,0.2,3.9-2.9,4.6c0.8,0.4,0.9,0.2,0.4-0.7c-0.1-0.7-0.2-1.4-0.2-2.1
			c-0.1-1.1-0.5-2.3-0.9-3.4c-1-2.8-5.7-4.1-7.6-0.7c-1.4,2.5-1.9,3.6-1.7,6.2c0.2,2.9,0.5,5.7,0.7,8.6c0.2,1.9,3.7,1.4,3.5-0.5
			c-0.3-3.7-0.6-7.3-0.9-11c0.1,1.5,0.8,0,1.1-0.8c1.2-3.3,2.2,2,2.3,3.2c0.1,1.6,0.4,3.9,2.7,4.1c2.2,0.2,5.2-1.7,6.2-3.3
			c0.2-0.4,0.4-1,0.3-1.4c-0.1-1.9,6.8-4,6.2,0.7c-0.3,2.1-4.9,2.7-6.5,4c-0.6,0.4-1.4,1.8-2.1,1.9c-1.2,0.2-2.5,0.3-3.7,0.5
			c-2.5,0.3-5,0.7-7.5,1C138.6,297.8,138.8,300.8,141.1,300.5z"/>
		<path fill="#010101" d="M209.8,272.2c3.6-4.8,6.4-7.8,9.6-10.7c3.3-3.2,5.3-6.7,9.1-8.4c3.5-1.8,9.1-2.2,14.2-3.1
			c3.9-0.6,8.4-0.9,13.6-1.3c1.8-1.6,4.5-1.8,6.6-1.9c4.2-0.2,7.8,2.3,11.6,3.6c9.5,3.3,18.5,8.1,24.4,14.5
			c7.3,8.1,10.5,18.5,10.5,29.4c0,1.3-0.3,15-2.7,15.5c0,1.5,0.2,6,0.2,10.4c0,4.5-0.1,8.8-0.1,10.4c-0.1,3.2-1,24.2-5.3,24.2
			c-7.8,0.1-5-17.4-8.4-17.3c-6.1,0.1-9.8,2.5-12,5.5c-3.8,5-3.8,11.7-7.2,11.8c-4.7,0.1-3.8-7.6-8.4-7.4c-0.7,0-3.4,0.3-3,16.4
			c0.1,2.4-1.7,3.9-3.6,4c-2.6,0.1-5.8-2.3-6-8.2c-0.1-4.2,2-6.9,2-9.3c-0.8-3.6-6.5-2.8-9.4-3c-0.2,4.2-1.8,5.5-3.5,5.6
			c-1.8,0.1-3.7-0.9-4.5-1.8c-0.8-0.7-1.5-1.1-2.3-1c-2.7,0.2-4.1,5.4-4,8.8c0.1,2.8,0.7,5.6,1.2,8.3c0.3,1.4,2.6,6.8,2.8,11.1
			c0.1,2.7-0.7,4.9-3,5.6c-0.6,0.2-1,0.3-1.6,0.4c-5.4,0.4-8.6-6.2-8.8-10.8c-0.4-8.4,3.8-15.1,3.4-23.8c-0.1-3.1-2.2-9.5-5.5-11
			c-1.1,1.5-3.8,4.5-6.1,4.7c-3.9,0.3-5-10.1-6.1-20.4c-0.9-9.2-4.3-28.5-2.7-37.5C205.6,280,207.9,274.6,209.8,272.2z M233.5,292.1
			c0.3,8.2,2.2,17.5,8.2,24.1c3.7,4,5.2,1.8,8.3,5.5c1.8-0.1,3.6-0.2,5.4-0.3c14.8-0.6,20.1-9.2,19.9-21.6c0-1.7-1.1-9.7-1.6-11.5
			c-0.6-0.6-3.9-2.2-6-3.1c-1.5-0.7-2.5-1.3-3.2-1.3c-0.2,0-0.3,0-0.5,0.1c-0.3,0.1-2.1,1.9-2.5,3.4c0,1.5,0.5,2.4,0.9,3.9
			c0.5,1.1,1.2,4.1,1.2,5.8c0,1.8-0.1,11.1-5.2,11.3c-3.5,0.1-5.7-8.2-5.7-9.2c0-1.2-0.1-4.3,0.2-8.2c0.2-3,0.7-6.6,0.7-9.3
			c-0.2-3.2-1.5-3.6-1.5-4.8c-6.9,0.6-4.9,7.2-7.9,11.4c-1.5,1.9-4,3.3-8.7,3.6C234.8,292.1,234.1,292.1,233.5,292.1z"/>
		<path fill="#010101" d="M211.4,272.8c3.6-4.7,7.9-8.7,11.9-13.1c2.5-2.8,4.7-5.1,8.7-6.3c3.9-1.2,8.3-1.6,12.4-2.2
			c3.2-0.4,6.5-0.7,9.7-0.9c3.2-0.2,4.2-1.6,7.5-2c3.8-0.5,7.2,1.3,10.4,2.7c3.4,1.5,6.9,2.6,10.3,4.1c13.7,6.3,21.6,16.7,24.4,29.4
			c1,4.4,1,8.8,0.8,13.2c-0.1,1.9,0.4,9.6-1.7,10.7c-0.5,0.3-0.9,0.8-0.9,1.3c0.1,8,0.3,16-0.1,24c-0.2,3.2-0.5,6.3-0.9,9.5
			c-0.4,2.9-0.5,7.5-2.7,9.9c-1.6,1.8-4.1-8.1-4.2-8.5c-0.3-2.3-0.3-5.1-1.5-7.2c-2.8-4.8-13.1,0.8-15.4,3.8
			c-1.3,1.6-2.3,3.3-3.1,5.2c-0.4,0.9-2.4,7.8-4.5,6.3c-2.2-1.6-1.8-5.3-4.7-6.4c-3.1-1.2-4.9-0.1-6,2.5c-1.1,2.6-1.1,5.6-1.2,8.3
			c0,0.9,0.6,11.4-3.9,8.3c-3.4-2.3-2.3-7.8-1.3-10.9c2.5-7.6-2.5-8.5-10.1-8.8c-1,0-1.6,0.8-1.7,1.6c-0.4,4.4-3.3,3.8-6.3,1.8
			c-0.7-0.5-1.9-0.7-2.8-0.5c-2.7,0.7-3.6,2.8-4.4,4.9c-3.2,8.3,2.5,16.7,3.2,24.8c0.5,3-1.5,4.1-6.1,3.3c-0.8-0.7-1.5-1.5-2.1-2.4
			c-1.6-2.3-1.8-5.1-1.9-7.7c0-5.1,1.9-10.2,2.9-15.2c1.2-6.2,0.9-15.1-5.5-19c-0.7-0.4-1.9-0.6-2.5,0.2c-0.8,1-1.7,1.9-2.6,2.8
			c-3,2.9-3.7-0.8-4.1-2c-1.3-3.8-1.6-8.1-2-12.1c-0.6-5.6-1.3-11.2-2-16.8C206.1,297.5,203.6,284,211.4,272.8c1.2-1.7-2-3-3.2-1.3
			c-9.7,13.9-5,31.4-3.1,45.9c1,7.9,0.8,16.5,4,23.9c2.6,6.1,8.7,1.7,11.7-2c-0.8,0.1-1.6,0.1-2.5,0.2c11.1,6.8,1.4,24.3,1.6,33.8
			c0.1,4.9,6.9,17.2,14.4,10.8c3-2.5,2.7-6.3,2-9.6c-1.3-5.8-3.5-11.1-3.5-17.2c0-2.9,0.8-6.5,4.5-4.5c1.7,0.9,3.3,1.5,5.3,1.2
			c3.7-0.6,4.2-4.5,4.5-7c-0.6,0.5-1.1,1.1-1.7,1.6c3,0.1,8.5-0.3,7.1,4.1c-0.7,2.3-1.3,4.4-1.4,6.8c-0.1,3.3,1.5,8.3,5.6,9.3
			c3.1,0.8,6.3-0.6,7.1-3.5c1.4-4.9-0.2-10.3,1.2-15.3c0.1-0.2,0.7-1.3,0.5-1.3c1.1-0.4,2.5,2.9,3,3.8c1.1,1.9,4.1,5,7,3.2
			c3.8-2.3,4.3-7.6,6.2-11c1.7-3.1,4.7-4.9,8.5-5.7c3.5-0.8,2.9,1.3,3.3,3.9c0.5,3.9,1.2,14.3,8.5,13.1c5.6-0.9,5.5-12.5,5.9-16
			c1-9.5,0.9-19,0.7-28.5c0-1.9-0.5-0.2,0.6-2.2c0.8-1.3,1-2.9,1.2-4.3c0.6-3.5,0.8-7.1,0.8-10.7c0.2-10.8-3.2-21.6-10.7-30.4
			c-7.6-8.8-21.2-14.5-33.2-18.3c-1.9-0.6-3.8-0.6-5.7-0.5c-2.7,0.2-4.9,1.8-7.5,2c-6.6,0.5-13.1,1.3-19.6,2.5
			c-6.3,1.1-10,3.7-13.8,8c-4.1,4.6-8.6,8.9-12.4,13.8C206.9,273.2,210.1,274.5,211.4,272.8z"/>
		<path fill="#010101" d="M231.7,292.2c0.4,8.9,2.3,17.7,8.5,24.8c2.3,2.6,5.8,3.6,8.6,5.7c1.3,1.1,5,0.2,6.6,0.1
			c18.6-0.8,22.8-14.9,21.1-28.3c-0.2-1.9,0-5.4-1.3-7.1c-1.4-1.9-7-4.4-9.5-4.9c-2.8-0.5-3.9,1.1-5.3,3c-2.1,2.9,0.7,7.5,1.2,10.5
			c0.4,2.6,0,5.5-0.8,8c-1.9,6.7-5.8-2-6.4-4.4c-1-4.1,0.2-9.2,0.6-13.4c0.4-3.8-0.7-6.3-1.3-9.7c-0.1-0.6-1-1.1-1.8-1
			c-4,0.6-5.9,2.3-7.1,5.5c-0.9,2.4-0.9,5-2.8,7.2c-2,2.2-5.9,2.3-8.8,2.3c-2.3,0-2.2,3,0.1,3c4.2,0,8.1-0.7,11.3-3.3
			c3.6-2.9,1.8-10.8,7.4-11.7c-0.6-0.3-1.2-0.7-1.7-1c0.6,3.1,1.5,5.6,1.2,8.9c-0.3,4.1-0.7,8.1-0.7,12.2c0,3.2,1.6,9.1,5.2,10.8
			c4.6,2.2,7.6-2.4,8.5-5.7c0.6-2,0.7-4.2,0.7-6.2c0-3.5-3.4-9.1-0.5-12.2c-0.1,0.1,4.5,2.3,4.9,2.4c2.2,1,2.5,1.6,2.8,3.6
			c0.4,2.6,0.8,5.3,1,7.9c0.6,7.1-1.6,15-9.4,18.8c-3.3,1.6-7.3,1.7-10.9,1.9c-1.5,0.1-2.3,0.2-2.8-0.3c-0.9-1-2.1-1.5-3.5-2
			c-9.9-3.4-11.3-17.9-11.7-25.8C235.1,290,231.6,290.2,231.7,292.2z"/>
		<path fill="#010101" d="M325.4,268.3c3.9-4.4,6.8-7.2,10.1-9.8c3.4-2.9,5.7-6.1,9.6-7.6c3.6-1.4,9.2-1.4,14.3-1.8
			c3.9-0.2,8.4-0.2,13.7,0c1.9-1.4,4.6-1.4,6.7-1.3c4.2,0.2,7.7,3,11.3,4.6c9.3,4.2,18.1,9.7,23.6,16.7c6.8,8.8,9.5,19.4,8.9,30.3
			c-0.1,1.3-1.1,14.9-3.5,15.2c-0.1,1.5-0.2,6-0.4,10.4c-0.2,4.5-0.6,8.8-0.7,10.3c-0.3,3.2-2.3,24-6.5,23.7
			c-7.8-0.6-4.1-17.8-7.5-18c-6.1-0.5-9.9,1.6-12.3,4.4c-4,4.6-4.4,11.4-7.8,11.2c-4.7-0.3-3.4-7.9-8-8.2c-0.7,0-3.4-0.1-3.9,16.1
			c-0.1,2.4-1.9,3.7-3.8,3.7c-2.6-0.1-5.7-2.8-5.5-8.7c0.1-4.2,2.4-6.7,2.5-9.1c-0.6-3.6-6.3-3.4-9.3-3.9c-0.4,4.2-2,5.3-3.8,5.2
			c-1.8-0.1-3.7-1.3-4.4-2.2c-0.7-0.8-1.5-1.2-2.2-1.2c-2.7-0.1-4.4,5-4.4,8.5c0,2.8,0.4,5.6,0.8,8.3c0.3,1.4,2.2,7,2.2,11.3
			c0,2.7-1,4.8-3.3,5.3c-0.6,0.1-1,0.2-1.6,0.2c-5.4-0.1-8.2-7-8.2-11.6c0.1-8.4,4.6-14.8,4.7-23.5c0-3.1-1.7-9.6-4.9-11.5
			c-1.2,1.4-4.1,4.2-6.3,4.1c-3.9,0-4.4-10.5-5-20.9c-0.4-9.2-2.8-28.8-0.7-37.6C320.8,275.7,323.4,270.6,325.4,268.3z M348,290.3
			c-0.1,8.2,1.2,17.7,6.9,24.8c3.5,4.4,5.1,2.2,8,6.2c1.8,0.1,3.6,0.2,5.4,0.2c14.8,0.7,20.6-7.3,21-19.7c0.1-1.7-0.6-9.8-0.9-11.6
			c-0.6-0.7-3.7-2.5-5.8-3.7c-1.5-0.9-2.4-1.5-3.2-1.6c-0.2,0-0.3,0-0.5,0.1c-0.3,0.1-2.2,1.7-2.7,3.2c0,1.5,0.4,2.5,0.6,4
			c0.4,1.2,0.9,4.2,0.9,5.9c-0.1,1.8-0.7,11.1-5.8,10.8c-3.5-0.2-5.2-8.7-5.2-9.7c0-1.2,0.1-4.3,0.7-8.2c0.4-2.9,1.1-6.5,1.2-9.2
			c-0.1-3.2-1.3-3.8-1.2-4.9c-6.9,0-5.2,6.7-8.5,10.7c-1.6,1.7-4.2,2.9-8.9,2.8C349.3,290.4,348.7,290.4,348,290.3z"/>
		<path fill="#010101" d="M327,269.1c3.8-4.3,8.3-8,12.6-12c2.7-2.5,4.9-4.6,9.1-5.5c3.9-0.9,8.4-0.8,12.5-1c3.2-0.2,6.5-0.1,9.7,0
			c3.2,0.1,4.3-1.2,7.6-1.3c3.9-0.1,7.1,2,10.2,3.7c3.3,1.8,6.8,3.2,10,5.1c13.4,7.6,20.6,18.6,22.8,31.5c0.7,4.4,0.6,8.9,0.1,13.3
			c-0.2,1.9-0.1,9.6-2.3,10.5c-0.5,0.2-0.9,0.7-0.9,1.2c-0.3,8-0.5,16-1.4,23.9c-0.3,3.2-0.8,6.3-1.4,9.4c-0.5,2.8-0.9,7.4-3.2,9.6
			c-1.7,1.7-3.7-8.4-3.7-8.8c-0.2-2.3,0-5.1-1.1-7.3c-2.6-5.1-13.1-0.4-15.6,2.3c-1.4,1.5-2.5,3.1-3.4,4.9c-0.3,0.7-3.1,8-5.1,5.6
			c-1.5-1.9-1.5-5.3-4.1-6.5c-3-1.4-4.9-0.6-6.2,2c-1.2,2.5-1.4,5.5-1.6,8.2c-0.1,0.9,0,11.4-4.3,7.9c-3.3-2.6-1.9-8-0.7-11
			c2.9-7.3-2-8.7-9.7-9.7c-1-0.1-1.7,0.7-1.8,1.4c-0.6,4.4-3.5,3.5-6.4,1.2c-0.7-0.5-1.9-0.9-2.8-0.8c-2.7,0.5-3.7,2.4-4.7,4.5
			c-3.6,8,1.6,16.9,1.9,25c0.4,3-1.7,3.9-6.2,2.8c-0.8-0.8-1.4-1.6-1.9-2.6c-1.4-2.4-1.6-5.2-1.4-7.8c0.2-5.1,2.5-10,3.7-14.9
			c1.5-6,1.7-15-4.5-19.5c-0.7-0.5-1.8-0.7-2.5,0c-0.9,0.9-1.8,1.8-2.8,2.6c-3.1,2.6-3.6-1.1-4-2.4c-1.1-3.9-1.1-8.2-1.4-12.2
			c-0.3-5.6-0.7-11.3-1.1-16.9C320.4,293.3,318.6,279.5,327,269.1c1.3-1.6-1.8-3.1-3.1-1.5c-10.4,13-6.6,30.9-5.6,45.5
			c0.6,8-0.1,16.5,2.7,24.2c2.3,6.3,8.6,2.5,11.8-0.9c-0.8,0-1.6,0-2.5,0c10.7,7.8,0.1,24.3-0.2,33.9c-0.2,4.8,6,17.8,13.8,12.1
			c3.1-2.3,3-6.1,2.5-9.4c-1-5.9-3-11.4-2.6-17.5c0.2-2.9,1.1-6.4,4.7-4.1c1.6,1,3.2,1.8,5.3,1.7c3.7-0.2,4.4-4.1,4.8-6.6
			c-0.6,0.5-1.2,0.9-1.8,1.4c3,0.4,8.5,0.5,6.9,4.7c-0.9,2.2-1.5,4.3-1.7,6.7c-0.3,3.3,1.1,8.4,5.1,9.8c3.1,1,6.3-0.1,7.3-2.9
			c1.7-4.8,0.3-10.3,2-15.2c0.1-0.2,0.7-1.3,0.6-1.2c1.1-0.3,2.3,3.2,2.7,4.1c1,2,3.8,5.4,6.8,3.8c3.9-1.9,4.7-7.2,6.7-10.4
			c1.9-2.9,4.9-4.4,8.7-4.9c3.5-0.5,2.9,1.6,3.1,4.2c0.3,3.9,0.5,14.4,7.8,13.9c5.7-0.4,6.2-11.9,6.7-15.4
			c1.5-9.3,1.9-18.9,2.2-28.3c0.1-1.9-0.5-0.3,0.8-2.1c0.8-1.2,1.1-2.8,1.4-4.2c0.8-3.5,1.2-7.1,1.4-10.6c0.8-10.7-2-21.8-9.1-31.3
			c-7.1-9.5-20.4-16.4-32.1-21.3c-1.8-0.8-3.7-1-5.7-1c-2.7-0.1-5,1.4-7.6,1.3c-6.6-0.2-13.1,0.1-19.7,0.7
			c-6.4,0.5-10.2,2.8-14.2,6.7c-4.4,4.3-9.1,8.1-13.1,12.6C322.5,269.1,325.6,270.6,327,269.1z"/>
		<path fill="#010101" d="M346.2,290.2c-0.1,8.9,1.4,17.9,7.2,25.6c2.1,2.8,5.6,4.1,8.3,6.5c1.3,1.2,5,0.7,6.6,0.7
			c18.6,0.9,23.5-12.8,22.6-26.3c-0.1-2,0.3-5.3-0.9-7.2c-1.3-2.1-6.7-5.1-9.2-5.8c-2.7-0.8-4,0.8-5.4,2.5
			c-2.3,2.7,0.3,7.6,0.6,10.6c0.3,2.6-0.3,5.4-1.2,7.9c-2.3,6.5-5.7-2.5-6.2-5c-0.8-4.2,0.7-9.1,1.3-13.3c0.6-3.7-0.3-6.3-0.8-9.8
			c-0.1-0.6-1-1.2-1.7-1.2c-4,0.3-6,1.8-7.4,4.8c-1,2.3-1.1,4.9-3.2,6.9c-2.1,2-6,1.7-8.9,1.5c-2.3-0.2-2.3,2.8-0.1,3
			c4.2,0.4,8.1,0.1,11.4-2.2c3.7-2.6,2.3-10.6,8-11c-0.6-0.4-1.1-0.8-1.7-1.2c0.5,3.2,1.2,5.7,0.7,9c-0.6,4-1.2,8-1.3,12.1
			c-0.1,3.2,1.2,9.3,4.6,11.2c4.5,2.6,7.7-1.7,8.8-4.9c0.7-2,0.9-4.1,1.1-6.2c0.2-3.5-2.9-9.3,0.2-12.2c-0.1,0.1,4.4,2.7,4.7,2.9
			c2.1,1.2,2.4,1.8,2.6,3.8c0.3,2.7,0.5,5.3,0.6,8c0.2,7.1-2.4,14.8-10.3,17.9c-3.4,1.3-7.4,1-11,0.9c-1.5-0.1-2.3,0-2.8-0.6
			c-0.9-1-2-1.7-3.3-2.3c-9.7-4.3-10.4-18.9-10.3-26.8C349.8,288.4,346.2,288.3,346.2,290.2z"/>
		<path fill="#010101" d="M467,332.7c0.2-2.8,0.4-5.5,0.6-8.3c0.1-1-0.1-2.7-0.9-2.8c-0.3,0-0.6,0.2-1.1,0.9c-0.8,1.1-1,3.5-1.2,4.2
			c-0.6,1.7-1.7,3-1.9,5.2c-0.1,1.7-0.1,3.3-0.1,4.1c0.3,2.6,0.5,5.2,0.8,7.8c-0.5,6.8-1,13.5-1.5,20.3c-0.3,1.8-1.3,1.6-5,1.2
			c-1.9-0.2-0.9-3.6-4.2-4c-0.8,0.7-1.2,1.9-1.3,3.4c-0.1,1,0,2.3,0.2,3.5c0.3,2,1.5,3.8,2.1,6.3c0.5,2,0.4,4.5,0.3,6.2
			c-0.3,5-3.4,7.2-7.1,6.8c-3.3-0.8-6.4-4.6-6.2-9c0.2-4,1.7-5.5,2.7-16.8c0.1-1,0.1-3.2-0.7-3.3c-0.3,0-0.8,0.3-1.3,1.1
			c-1,1.9-2.6,3.7-4.1,3.5c-1.6-0.2-3.1-2.5-3.7-5.5c-0.7-3.3-0.5-9.2-1.3-13c-0.4-2.6-0.4-5.2-0.9-7.3c-0.6-3.1-1.5-5.2-1.4-6.4
			c0.2-3.1,1.2-5,3.5-7.9c0.3-5.5,0.6-11.1,1-16.6c0.4-7.4-0.6-13.9-1.1-20.8c-0.4-6.7,0-13.9,0-21.1c0.1-1.5,0.2-3.1,0.3-4.6
			c0.2-3.1,0.8-6.1,3.6-6.4c1.7-0.1,10.3,0.4,12.3,0.6c1.8,0.6,3.7,1.2,5.5,1.8c0.3,0,5.2,0.7,7.1,1c4.9,0.6,7.5-0.9,11.9-0.3
			c4,0.5,7.5,3.3,11.5,4.4c2.9,0.8,7.7,1,9.3,2c0.7,0.8,1.4,1.6,2.1,2.4c1.4,0.6,3.2,0.7,4.1,1.4c0.6,0.6,0.2,1.8,1.3,2.4
			c0.6,0.3,1.8,0.5,3.2,0.8c1.4,0.2,3.1,0.5,4.9,1.3c1.2,0.5,1.6,1.7,3,2.7c1.9,1.5,2,3.2,1.9,5.1c-0.2,1.3-0.3,2.5-0.5,3.8
			c-0.1,0.9-0.2,1.7,0.1,2.5c0.8,3.2,2,6.1,1.7,10.2c-0.6,5.8-3.5,12.6-7.7,16.7c-2.4,2.3-3.4,2.4-4.1,4.9c-0.2,0.4-0.2,0.9-0.3,1.4
			c-0.1,1.4,0,3.4-0.1,4.5c-0.2,1.7-1.6,4.1-1.8,6.4c-0.2,2.7-0.5,5.7-4.4,5.1c-1.8-0.3-2.6-1.3-2.8-2.7c-0.1-1.8-0.9-3.7-0.8-5.9
			c-0.1-1.8,0.4-4.2-2.3-4.6c-2.7-0.4-11.7,1.9-12.4,5.8c-0.3,3.4-0.5,6.7-0.8,10.1c-0.4,5.6-3.6,5.6-5.7,5.3
			C469.2,341.6,467,337.2,467,332.7z M461.8,296.8c3.8,0.5,7.7,1,11.5,1.5c1.1,0.1,2.1-1.3,4-1.9c1.6-0.3,3.8,0.4,4.9-0.5
			c1.1-0.7,2-1.9,2.1-2.7c0.2-2.8-2.8-5.3-6-5.7c-2-0.3-3.6,0.8-3.7,2.3c0,0.3,0,0.5,0.1,0.9c-0.1,1.1-2.8,2.1-4.4,1.9
			c-0.9-0.1-1.3-0.4-1.1-4.4c-0.1-2.5-0.4-5.3-2.2-5.6c-3.5-0.4-1.9,2.3-4.4,3.1C462.4,289.4,462.1,293.1,461.8,296.8z"/>
		<path fill="#010101" d="M468.7,332.9c0.2-3.1,2.2-9.5-0.7-12.2c-0.6-0.5-1.4-0.8-2.1-0.5c-1.9,0.7-2.6,2.6-2.9,4.3
			c-0.7,4-2.2,7.1-2.4,11.3c-0.1,3.2,0.9,6.6,0.7,9.2c-0.4,4.9-0.7,9.8-1.1,14.7c-0.1,1.4-0.2,2.7-0.3,4.1c-0.1,1.9-3.7-1.7-4-2.2
			c-0.7-1-1.7-1.4-2.9-1.7c-0.7-0.2-1.5-0.1-2,0.5c-2.3,3-1.9,7.3-0.5,10.8c1.6,3.9,2.1,8,1,11.9c-1.1,3.9-6,3.2-8.1,0.2
			c-1.1-1.6-1.3-3.5-1.1-5.2c0.2-2.9,1.2-5.8,1.7-8.7c0.5-3,2.6-9.1-0.2-11.8c-0.5-0.5-1.4-0.8-2.1-0.5c-1.1,0.5-4.2,5.3-5.6,3.1
			c-2-3.1-1.4-7.8-1.6-11.1c-0.2-2.9-0.8-5.7-1-8.6c-0.4-3.9-2.4-8-1.5-11.9c0.5-2,3-3.6,3.1-5.6c0.1-1,0.1-1.9,0.2-2.9
			c0.2-3.8,0.4-7.6,0.7-11.4c0.7-12-1.2-24.2-1-36.3c0.1-4.7,0.1-9.3,0.5-13.9c0.5-5.6,11.8-3.6,16.1-2.2c3.4,1.1,6.7,1.5,10.3,2
			c3.1,0.4,6-0.1,9-0.4c5-0.5,9.4,2.8,13.9,4.3c2.7,0.9,5.7,0.9,8.5,1.6c1.1,0.3,1.6,1.9,2.6,2.5c0.9,0.6,2.3,0.8,3.3,1.1
			c0.4,0.1,0.6,1.3,1,1.7c1.9,1.8,4,1.9,6.7,2.4c8.8,1.5,5.6,9,6.2,13.7c0.4,3.4,1.8,6.4,1.6,9.8c-0.2,4.1-1.9,7.9-3.9,11.4
			c-2.8,5-8,7-8.3,13c-0.1,2.9-1.1,5.2-1.6,8c-0.3,1.4-0.3,2.9-0.8,4.3c-2.5,0.6-3.7,0-3.4-1.8c-0.3-1.4-0.5-2.8-0.6-4.1
			c-0.2-2.9-0.3-6.1-4.7-6.4c-4.6-0.3-9.6,2-12.4,4.7c-2,1.9-1.5,5.9-1.6,8.4c-0.1,1.4-0.2,2.7-0.3,4.1c-0.1,1.7-0.6,4.2-3.2,4.1
			C469.6,340.5,468.8,335.4,468.7,332.9c-0.1-1.9-3.6-2.4-3.5-0.4c0.2,3.4,1,8.1,5,10.1c2.6,1.3,6.7,1.8,8.5-0.4
			c1.9-2.4,1.9-5.3,2.1-8.3c0.4-5-0.2-8.2,5.7-10.5c8.7-3.3,4.8,5.6,7.4,9.6c1.9,2.9,5.9,3.7,8.5,1.5c1.2-1,1.4-2.6,1.6-4
			c0.4-2.6,1.4-5,1.9-7.6c0.7-3.5-0.2-6.2,2.9-8.9c2.6-2.2,4.4-4.9,6-7.7c2.7-4.8,3.9-10.4,3-15.9c-0.4-2.7-1.8-5.2-1.4-7.8
			c0.2-1.7,0.8-3.6,0.5-5.3c-0.5-3.5-4.1-7.4-8.3-8.4c-0.9-0.2-5.5-0.9-5.7-1.7c-0.1-0.5-0.3-1.1-0.7-1.5c-1.5-1.6-3.9-1.2-5.5-2.9
			c-2.8-3.2-8.6-2.6-12.5-3.9c-3-1-5.5-2.9-8.6-3.6c-3.6-0.8-6.8-0.3-10.3,0.1c-4.4,0.4-9.5-0.8-13.7-2.2c-4.1-1.3-8.7-1.2-13-1.3
			c-5.7-0.2-6.7,3.7-7,7.8c-0.5,6-0.3,12.1-0.4,18.2c-0.1,12.2,1.5,24.3,0.8,36.5c-0.2,3.9,0.1,7-2.1,10.2
			c-3.6,5.6-0.3,12.1,0.3,18.1c0.6,6-0.1,14.1,3.6,19.7c0.6,0.9,2.4,2.3,3.7,2c1.5-0.3,1.8-0.4,3-1.3c1.2-0.8,1.5-2.9,2.8-3.5
			c-0.7-0.2-1.4-0.3-2.1-0.5c1.6,1.5-0.4,7.8-0.7,9.6c-0.3,2.1-0.9,4.2-1.3,6.4c-1,4.7-0.1,9.1,4.3,12.5c3.5,2.7,9,0.9,10.6-2.4
			c1.4-2.9,1.7-6.3,1.2-9.5c-0.7-4.3-4.5-9.8-1.5-13.7c-0.7,0.2-1.3,0.3-2,0.5c2.4,0.7,1.8,3.7,4.6,4.1c2.4,0.3,4.8,0.8,6.3-1
			c0.7-0.8,0.6-2.4,0.6-3.4c0.2-2.9,0.4-5.8,0.6-8.6c0.3-3.5,1-7.1,0.6-10.6c-0.2-2.4-0.5-4.7-0.7-7.1c-0.3-2.6,0.3-5.1,1.4-7.4
			c0.6-1.3,0.5-5.1,2-5.5c-0.7-0.2-1.4-0.3-2.1-0.5c1.8,1.7,0,8.1-0.2,10C465.1,334.4,468.6,334.8,468.7,332.9z"/>
		<path fill="#010101" d="M461.7,298.3c3.2,0.4,6.5,0.8,9.7,1.2c1,0.1,1.9,0.3,2.9,0.2c0.9-0.1,1.6-0.7,2.2-1.1
			c1.6-1,3.4-0.7,5.2-0.8c4.3-0.4,4.9-5.2,3.1-8c-1.8-2.9-8.6-5.6-11-2.4c-1.3,1.6-0.4,3.9-3.6,3.8c0.7,0.6,0.9,0.4,0.5-0.5
			c0-0.7,0-1.4,0.1-2.1c0.1-1.1-0.2-2.4-0.4-3.5c-0.5-3-5-5.4-7.4-2.6c-1.7,2-2.4,3.1-2.6,5.7c-0.2,2.9-0.4,5.8-0.6,8.6
			c-0.1,1.9,3.4,2.3,3.5,0.4c0.3-3.7,0.5-7.4,0.8-11c-0.1,1.5,0.7,0.2,1.2-0.5c1.6-2.9,1.9,2.6,1.8,3.7c-0.1,1.6-0.2,3.9,2,4.7
			c2.1,0.8,5.3-0.3,6.5-1.7c0.3-0.3,0.5-0.8,0.5-1.3c0.1-1.9,7.3-2.1,6,2.2c-0.6,2-5.2,1.4-7,2.2c-0.6,0.3-1.7,1.4-2.4,1.3
			c-1.2-0.2-2.5-0.3-3.7-0.5c-2.5-0.3-5-0.6-7.5-0.9C459.7,295,459.5,298,461.7,298.3z"/>
		<path fill="#010101" d="M130.6,476.7c1.6,0,3.2,0.1,4.8,0.1c0.6-0.1,4.7,0.2,5.1,0.2c1.4-0.4,2.7-0.8,4.1-1.2
			c2.6-0.6,6.1-1,6.9-1.3c1-0.2,1.1-1.1,0.9-2.9c-0.1-0.9-0.3-1.8-0.7-2.7c-0.3-0.8-1.5-0.2-2.1-1c-0.4-0.7-0.3-2.6-1-3
			c-0.8-0.6-2.6,0.1-3.8-0.3c-0.8-0.3-1.3-1.5-1.8-2c-0.5-0.6-1.3-0.6-2.3-0.5c-1.1,0.2-2.5,0.6-4,0.9c-1.6,0.2-2.1-1.4-3.7-1.7
			c-2.7-0.5-6.9,0.8-9,0.4c-1.5-0.2-1.6-1.9-3.2-2.3c-1.4-0.4-2.9-0.4-4.6-1c-1.7-0.8-2.8-2.8-4-4c-0.8-0.7-1.1-0.8-1.3-2.2
			c-0.3-2.6-0.4-7-0.5-8.3c-0.2-2.4-1-6.1-1.3-9.8c-0.4-3.9-0.4-7.9,1.1-10.5c0.8-1.4,3.9-3.7,5.5-5.8c1.5-2,1.1-2.5,3.7-2.9
			c4.1-0.7,10.4-2,13.3-4.8c0.4-0.6,1-1.2,11.4-2.7c2.8-0.4,6.4-0.3,11-0.8c2.4-0.3,5-1.1,8.9-1.6c0.8-0.1,4.5-0.1,5.5,0
			c1.9,0.1,2.5-0.2,2.5,1.3c0.3,2,2.1,1.2,3,2.3c0.2,2.9,0.8,7.4,1.1,11.6c0.3,4.5-0.2,7.2-0.2,8.2c0,0.7,1.5,3.7,1.6,5.2
			c0,0.6-1.6,5-2.8,5.1c-1.4,0.2-1.9-3.1-2.8-3.9c-1.2-1.2-2.9-1.7-7.2-1.4c-4,0.5-5.4,3.2-9,3.6c-2.9,0.4-2.9-4-6.5-3.5
			c-2,0.3-8.4,2.8-10.3,3.4c-0.3,0.1-1,0.9-1,1.1c0.2,2.3,1,3.2,3.2,3.7c2.4,0.5,6-0.2,8.4-0.4c3.8-0.2,2.2,1.3,4.3,2.1
			c0.6,0.2,1.4,0.1,4-0.2c1-0.1,1.9-0.1,2.8,0c1.3,0.1,2.4,1.7,3.7,1.9c1.7,0.2,3,0.3,3.9,0.8c0.4,0.1,2.3,2.6,2.7,2.7
			c0.6-0.5,1.2-1,1.8-1.6c2.2,0.3,6.2,2.6,8.2,5.6c0.6,1,1,2,1.4,7.8c0.6,9.7,1.2,19.3,1.8,29c0.5,7.6-0.7,12.1-0.4,16.2
			c0.1,1.9,0.9,4,1.2,6.3c0.1,1.5,0.8,4.9,1,8.4c0.3,4.4-0.1,8.8-3.2,9.2c-2.5,0.3-4.1-4.3-4.5-9.6c-0.3-4.3-0.2-8.1-0.1-11.5
			c0-1.1,0.9-5,0.7-8.2c-0.2-2.6-1.1-4.8-3.7-4.4c-7.6,0.9-5.4,8.1-11.3,8.9c-3.2,0.4-3.3-3.4-5.8-3.1c-0.6,0.1-2,1.5-1.9,2.7
			c0.1,1.1,0.6,3.2,0.7,4.8c0,2.2,0.1,4.5,0.1,6.7c0.2,2,0.2,4.5-2.5,4.9c-2.6,0.4-3.4-3-3.6-5.5c-0.1-1-0.1-2-0.1-2.6
			c-0.2-1.9,0.3-2.9,0.2-3.9c-0.1-0.6-0.3-1.3-1.1-2.2c-1.7-1.9-3-4.2-6.4-3.8c-4.7,0.7-3.4,7-7.4,7.6c-3.1,0.5-3.6-5-7.6-4.3
			c-3.3,0.5-4.4,3.4-4.5,8.2c-0.1,1.5,0.3,5.6-1.6,5.9c-1.1,0.2-2.4-1-2.7-3.6c-0.3-3,1.3-4.9,1-8c-0.9-4.5-1.8-9-2.8-13.5
			c-0.5-4.7,0.8-6.2,0.5-9.3c0-0.3-1.2-1.8-1.2-2.2c-0.2-2.1,2-4.5,3.6-4.8C124.3,477.9,127.5,477.3,130.6,476.7z M143.1,530.9
			c0.3,3.2-1.4,5.2-3.1,5.5c-1.4,0.2-2.9-0.9-3.2-3.5c0.1-1.5-0.3-9.1,2.1-9.5C141.4,523,143,529.7,143.1,530.9z"/>
		<path fill="#010101" d="M130.3,478.2c3.1,0.1,6.3,0.1,9.4,0.3c1.2,0,2.3-0.4,3.4-0.7c2.8-0.8,5.7-1.1,8.6-1.8
			c3-0.8,2.8-4.3,2.1-6.4c-0.4-1.1-0.8-2.4-2.2-2.7c-0.9-0.1-1.6-3.2-3.3-3.7c-4.3-1-5.2-3.3-10.2-2.1c-2.1,0.5-3.9-1.3-6-1.5
			c-3.1-0.3-6.7,1.7-9-0.8c-1.9-2.1-5.6-1.1-7.7-3.3c-2-2.1-2.8-3.4-2.9-6.2c-0.4-6.3-1.5-12.5-1.8-18.8c-0.2-4.2,1.2-6.7,4.4-9.7
			c2-1.9,2.8-4.1,5.9-4.6c4-0.7,10.7-1.9,13.3-5.3c1.1-1.5,9.6-1.9,11.4-2.1c3.2-0.4,6.5-0.3,9.7-0.6c3.3-0.3,6.4-1.4,9.7-1.6
			c1.1-0.1,5.2-0.5,5.6,0.4c0.4,1,2.9,2.5,3,3.2c0.5,6.2,0.9,12.2,0.9,18.5c0,2.5,2.1,4,1.1,6.7c-1,2.5-1.2-0.2-2-1.4
			c-1.8-2.6-7.8-2.7-10.7-1.5c-1.5,0.6-2.7,1.2-4,2c-4.1,2.5-3.8-0.1-5.6-1.3c-1.9-1.3-3.7-1.2-6-0.5c-4.8,1.3-12.3,2.7-10,8.2
			c0.7,1.8,3.2,2.3,5.1,2.6c1.5,0.2,3.3-0.1,4.8-0.3c2.7-0.3,3.9,0.5,5.9,1.6c2.8,1.6,6.5-0.8,9.6,1.3c1,0.7,2.1,0.7,3.3,0.8
			c2.2,0.2,2.7,2,4.2,3c0.5,0.4,1.4,0.5,2,0c2.2-1.8,2.9-0.6,5.1,1c2.1,1.5,3,3.1,3.4,5.4c0.4,2.7,0.5,5.5,0.6,8.2
			c0.5,7.3,0.9,14.7,1.4,22c0.2,2.8,0.3,5.5,0.3,8.3c0,2.6-0.3,5.2-0.5,7.9c-0.2,3.3,0.6,6.3,1.2,9.5c0.5,2.8,0.8,5.6,1,8.4
			c0.1,1.7,0.1,3.4-0.2,5.1c-0.8,0.6-1.5,1.2-2.3,1.8c-0.6-1-1.1-2-1.3-3.2c-2.1-6.6-0.6-14.2-0.2-21c0.1-2.5,0.4-8.8-3.7-9
			c-3.9-0.2-6.7,1.5-8.7,4.6c-1.4,2.1-3.4,6.2-6.5,2.6c-0.8-1-1.8-1.4-3.1-1.5c-4.5-0.3-3.6,5.8-3.3,7.9c0.4,2.6,0.2,5.4,0.2,8
			c0,2.3-2.3,2.7-2.8,0.1c-0.2-1.2-0.2-2.5-0.2-3.7c-0.1-2.9,0.5-4.3-1.1-6.8c-1.8-2.8-5.3-5.5-9.3-3.9c-3.3,1.4-4.7,9.4-8.2,5.1
			c-3.6-4.4-9.1-1.9-10.7,3.1c-0.5,1.7-0.5,3.6-0.5,5.3c0,0.9,0,1.8-0.2,2.7c-0.3-0.6-0.6-1.2-0.9-1.8c0-1.2,0.1-2.4,0.5-3.6
			c0.6-2.6,0.5-4.5,0-6.9c-1.1-5.6-2.9-11-2-16.9c0.4-2.5-1.6-8.1,2.2-8.9c2.8-0.6,5.5-1.1,8.3-1.7c2.1-0.4,1.8-3.4-0.3-3
			c-4.9,1-15.2,1.5-14.5,8.5c0.2,2,1.3,3.5,1,5.8c-0.3,1.8-0.5,4-0.2,5.7c0.6,3.1,1.3,6.2,1.9,9.4c0.8,3.7,0.5,6.3-0.2,10.2
			c-0.4,2.5,0.9,7.2,4.4,6.6c3.2-0.5,3-4.8,3-6.9c0-1.5,0.2-3,0.5-4.5c1.2-5.9,4.6-1.9,5.5-0.8c0.8,0.9,2,2.4,3.4,2.4
			c3.3,0,4.7-2,6-4.7c2.6-5.7,8.8-0.6,8.2,3.7c-0.3,2.3-0.1,5.1,0.5,7.3c0.9,3.1,2.8,4.8,6.4,3.6c3-1,2.4-5.3,2.4-7.4
			c0-1.6,0-3.3-0.1-4.9c0-0.7-0.1-1.1-0.2-1.8c0,0.3-0.6-5.4,1.1-3.5c2.1,2.4,5.1,2.6,8,0.7c1.2-0.7,1.9-2.1,2.6-3.2
			c1.7-2.8,6.6-6.8,7.3-1.2c0.3,2.7-0.6,5.5-0.7,8.2c-0.1,3.9-0.1,7.7,0.1,11.5c0.2,3.2,1.1,11.5,6.2,10.9c5.8-0.7,4.8-9.1,4.5-12.6
			c-0.6-6.7-2.3-12.9-1.7-19.8c0.4-4.5,0.2-8.8-0.1-13.2c-0.5-8.3-1-16.5-1.6-24.8c-0.3-4.4-0.4-7.8-3.5-11.1
			c-1.6-1.6-4-3.4-6.5-3.9c-2-0.4-2.6,0.4-4,1.7c0.7,0,1.3,0,2,0c-1.1-0.8-1.7-2.3-3.1-2.9c-2.2-0.8-4.5-1.6-6.6-2.4
			c-2-0.7-4-0.4-6.2-0.2c-2.2,0.3-2.5-1.4-4.4-2c-1.9-0.5-4.6,0.1-6.6,0.3c-1.1,0.1-7.8-1.2-4.1-2.5c1.2-0.4,2.3-0.9,3.5-1.3
			c3-1.1,5.5-1.8,7.6,0.6c0.8,0.9,2.2,1.7,3.6,1.4c5.2-1.2,12.7-7.4,15.7-0.8c1.1,2.4,3.4,3.5,5.5,1c2.5-3.1,2.2-5.9,1-9.1
			c-0.7-2-0.3-4-0.2-6.1c0.1-4.1-0.5-8.2-0.9-12.2c-0.4-3.4-1.6-5-4.4-7.2c-2.4-1.9-10.9-0.1-13.7,0.5c-6.2,1.2-12.4,1.1-18.6,2
			c-2.3,0.4-6.4,0.6-8.4,2.2c-1.8,1.5-3.7,2.5-6.1,3.2c-2.6,0.9-5.9,0.7-8.4,1.9c-1.3,0.6-1.9,1.3-2.7,2.4c-1.6,2.4-5,4.3-6.2,6.9
			c-2.5,5.5-1.3,11.3-0.5,16.7c0.4,2.5,0.7,4.9,0.8,7.4c0.1,2.1-0.4,5.3,0.8,7c1.8,2.6,3.9,5.1,7.3,6.1c2.7,0.8,4.7,2.8,7.6,3
			c1.4,0.1,3-0.2,4.4-0.4c2.9-0.4,3.9,1.3,6.3,1.6c1.5,0.2,2.7-0.2,4.3-0.6c2.9-0.7,2.6,1.5,4.5,2.2c0.9,0.3,3.3-0.2,3.6,1.1
			c0.2,0.9,0.3,1.7,1.2,2.1c0.9,0.5,3.2,3.5,1.7,3.9c-2.2,0.5-4.4,0.6-6.6,1.2c-4.5,1.3-8.5,0.9-13.2,0.8
			C128.8,475.1,128.2,478.1,130.3,478.2z"/>
		<path fill="#010101" d="M141.6,531.1c0,1.1,0,3.3-1.6,3.7c-1.3,0.3-1.5-2.1-1.5-2.7c0-1.7,0-3.4,0.3-5.1c0.1-0.7,0.2-1.7,0.7-2.3
			c-0.5,0-0.6,0.1-0.2,0.4c0.4,0.4,0.6,0.9,0.8,1.3C140.8,527.8,141.4,529.5,141.6,531.1c0.2,1.9,3.4,1.4,3.1-0.5
			c-0.3-2.7-1.4-7-4-8.4c-3.6-1.9-4.9,3.3-5.2,5.6c-0.3,3-1,8.3,2.5,9.7c4.5,1.7,6.8-3.4,6.7-6.9
			C144.7,528.7,141.5,529.2,141.6,531.1z"/>
		<path fill="#010101" d="M213.7,489.4c-0.5,0.8-1.3,1.3-1.8,1.7c-2.6-0.6-3.2-2.9-3.4-7.9c0-0.5-0.5-0.9-1.1-0.8
			c-0.4,0-1,0.3-1.5,1.1c-0.8,1.1-1.3,3.8-1.1,6.4c0.8,4,3.7,6.9,3.9,10.8c0.1,2.9-0.8,10.8-4.7,11.2c-3.8,0.4-5-3.5-5.2-7.8
			c-0.1-2.4,0.1-4.8,0.3-6.9c0.2-2.1,0.2-4.2,0.1-6c-0.2-3.3-0.7-5.9-0.7-7.3c-0.6-6.9-5.1-11.7-7.2-17.9
			c-1.8-5.1-3.4-18.3-3.7-23.9c-0.1-1.4-0.5-3.7-0.6-6.3c-0.1-2.4-0.1-4.9,0.4-7.2c0.5-2.9,3.1-4.6,3.8-7.1c1.3-4.3,1.5-6.1,4.2-8.7
			c2.6-2.7,7.7-5.6,9-9.3c6-1,11-3.3,16.9-3.8c1.1-0.1,2.4-0.4,4-0.5c1.5-0.1,3.2,0,4.8,0.6c3.7,1.3,6.5,1.1,8.7,1.7
			c7.5,1.7,11.6,4.3,11.8,10.9c0.1,5.2-5.1,7.4-4.9,12.9c0,0.4,1.3,1.5,1.4,5.1c-0.2,2.4-1.3,5.1-4.7,5.3c-2.3,0.1-5-2.6-5.1-4.7
			c0-1.2,0.6-2.6,0.6-3.8c0-1.3-1-1.9-2.5-1.8c-2,0.1-4.7,1.1-5.9,1.9c0,0-0.9,2.7-1.8,4.1c-0.9,1.3-0.9,2.9-3,3
			c-0.6,0-2.2,0.1-3.2-1.3c-0.3-0.6-0.3-2.6-0.6-7.5c0-0.9-0.2-1.6-0.8-1.6c-0.2,0-0.5,0-0.8,0.3c-0.7,0.5-1.3,1.8-2.2,2.5
			c-1,0.7-2.5,1.3-3,1.8c-2.4,2.5-3.1,5.6-2.8,11.6c0.1,1,2,10.3,2,11.2c2.9,5.9,7.7,10.1,14.8,9.6c7-0.5,17.8-3.1,20.8-11.1
			c0.5-1.4,2.6-3.3,4.5-3.4c1.3-0.1,2.4,0.8,2.9,3.4c-0.3,1.3-0.6,2.5-0.9,3.8c0,1.1,0.1,2.1,0.1,3.2c0.1,2.8,0.2,5.9,0.4,11.4
			c0.1,4.1,0,8.2-0.8,11.5c-0.3,1.3-1.9,1.6-2.8,1.7c-3,0.2-2.3-5.2-4.4-5c-2.7,0.1-3.8,2.4-4.8,5.2c-0.8,2.4-1.5,5.1-1.9,5.9
			c-0.4,1.1-1.7,3.2-2.9,3.3c-3.7,0.2-2.2-5.7-6.3-5.4c-3,0.2-3.5,2.5-3.4,5.1c0.1,2.5,1.8,6.2,1.9,9.3c0.1,3-0.8,5.6-4.1,5.9
			c-3,0.2-3.5-4.3-3.7-6c0-0.1,0-0.1,0-0.2c0-0.8,0.5-4.5,0.5-6.9c0.1-0.8,0-1.5,0-2.1c-0.1-3.1-1.5-5.9-5.5-5.7
			C215.5,485.1,214.7,487.6,213.7,489.4z"/>
		<path fill="#010101" d="M212.5,488.5c-2.6,2.8-2-4.7-2.5-5.8c-0.6-1.1-0.9-1.4-2.2-1.8c-3.8-1.1-4.5,5.9-4.6,7.6
			c-0.4,5.5,4.5,9.6,3.8,15.4c-0.2,1.6-1.8,9.6-5.3,5.5c-2.4-2.8-1.3-9-1-12.3c0.4-5,0.2-10.5-0.9-15.4c-1.5-6.4-5.6-11.7-7.4-17.9
			c-1.4-5-2-10.4-2.6-15.6c-0.7-6.3-1.8-12.9-0.8-19.3c0.4-2.5,2.8-4.7,3.8-7.1c1.1-2.9,1.4-5.5,3.8-8c2-2.1,4.6-3.8,6.7-5.9
			c0.8-0.8,1.4-1.7,2-2.6c0.8-1.2,4.1-1.4,5.3-1.7c4-1,7.8-2,11.9-2.5c3.9-0.5,6.9,0.3,10.6,1.1c6.7,1.4,14.5,1.7,15.7,9.1
			c0.8,5-4.6,9.1-4.8,14.2c-0.1,2,1.7,3.2,1.3,5.7c-0.2,0.5-0.4,1.1-0.6,1.6c-4.7,1.2-6.5-0.1-5.4-4c0.3-1.3,0.1-1.9-0.2-3.1
			c-1-3.2-7.4-1.2-9.4-0.1c-1.5,0.8-1.7,1.2-2.3,2.6c-0.5,1.3-1.1,2.5-1.8,3.7c-1.9,1.2-2.8,1.1-2.7-0.1c-0.1-0.6-0.1-1.2-0.1-1.8
			c-0.1-1.3,0.7-8.6-3.1-7.3c-2.1,0.7-2.7,2.5-4.5,3.6c-2,1.2-3.1,2.2-4.2,4.2c-1.8,3.3-1.6,8-1,11.4c0.5,3,0.5,7.5,1.9,10.1
			c4.7,8.9,11.9,11.8,22.6,9.7c4.5-0.9,8.7-2.8,12.2-5.7c1.8-1.4,2.9-3.4,3.8-5.4c0.8-1.9,4.7-2.4,4.1-0.1c-0.2,0.9-0.5,1.9-0.7,2.8
			c-0.7,3,0.1,7.1,0.3,10.2c0.1,3.3,0.3,6.6,0.2,10c0,0.4-1.2,7.6-2.4,6.1c-0.7-0.8-0.7-2.1-1.2-2.9c-1.2-2.1-4.2-2.3-6.1-0.4
			c-1.5,1.5-2.2,3.2-3,5.1c-0.3,0.9-3,10.4-4.9,5.9c-1.2-2.8-3.3-3.6-6.4-2.9c-4.1,0.9-3.3,6.7-2.7,9.1c0.3,1.4,0.8,2.8,1.1,4.1
			c0.1,0.8,0.2,1.6,0.4,2.4c0.6,2.5-0.8,3.3-4,2.5c-0.6-1.5-0.6-3.1-0.5-4.7c0.3-3.7,1.6-9.5-1.4-12.4c-4.4-4.2-8.4-0.9-10.6,3.4
			c-0.9,1.8,1.9,3,2.9,1.3c0.2-0.4,0.4-0.8,0.6-1.2c0.7-2.3,2.5-2.3,5.4,0c0.4,1.1,0.3,2.7,0.3,3.9c-0.1,2.3-0.4,4.6-0.5,6.9
			c-0.1,2.8,1,6,3.7,7.4c2.5,1.3,6.1-1.1,6.8-3.4c0.6-1.9,0.7-3.7,0.3-5.6c-0.3-1.4-0.6-2.8-1-4.2c-0.3-1.1-0.6-2.2-0.7-3.3
			c-0.6-2.3,0.5-3,3.3-2.2c0.8,1.6,2.4,5.2,5.2,4c4.1-1.8,4.8-6.7,5.9-10.3c0.2-0.7,2.5-5.4,3.5-2.5c0.2,0.6,0.5,1.2,0.8,1.8
			c0.5,1,1.7,1.5,2.9,1.7c4.9,0.7,5.2-4.9,5.5-7.9c0.6-5.7-0.1-11.6-0.3-17.3c0-1.2-0.4-2.8-0.1-4c0.3-1.2,1.2-3,0.8-4.3
			c-0.9-3-2.5-4.9-6.1-4.1c-1.4,0.3-3.2,1.9-3.8,3c-1.8,3.2-3.1,5.5-6.5,7.5c-4.7,2.9-11.9,4.3-17.2,3.4c-6.8-1.2-9.1-7.7-10.2-13.1
			c-0.8-4.3-1.6-8.4-0.8-12.9c0.6-3.2,3.1-3.5,5.1-5.6c0.3-0.3,0.5-0.6,0.8-0.8c1-0.7,1-1,0.1-1.1c0.3,1.7,0.2,3.6,0.3,5.4
			c0.2,2.6,1.1,4.3,4.1,4.8c3.9,0.6,5.5-3.7,6.6-6.2c0.8-1.9,0.2-1.3,2.4-2.1c4.8-1.9,3.3,0.9,3.2,2.3c-0.2,2.1,0.4,3.5,1.8,5.2
			c2.5,2.8,6.4,2.6,9.2,0.2c2.8-2.4,2.1-7.1,0.8-9.8c-1.2-2.4,1.7-5.6,3-7.7c1.4-2.2,1.8-4.4,1.6-6.8c-0.7-10.3-13.2-10.5-21.7-12.8
			c-5.4-1.5-11.8,0-17.2,1.4c-2.7,0.7-7.6,1.2-9.8,2.5c-0.7,0.4-0.8,1.2-1.1,1.8c-0.9,1.9-3.3,3.6-4.9,5c-4,3.3-6,6.1-7.3,10.7
			c-0.8,2.7-3,4.7-3.8,7.3c-1.1,3.6-1,7.2-0.7,10.8c0.8,9.5,1.3,19.6,4.3,28.7c2.1,6.3,6.5,11.5,7.2,18.3c0.6,6.5,0.1,12.9,0.3,19.4
			c0.1,3.3,1.2,9,5.7,9.1c4.7,0.1,6.3-4.3,7-8c1.2-5.7-1.3-9.6-3.2-14.6c-0.8-2.1,0.4-3.9,0.3-5.9c0.1,1.4,0.3,2.7,0.7,4
			c0.4,1.7,1.8,3,3.5,3.6c0.5,0.2,1.2,0.2,1.6-0.1c0.9-0.7,1.4-1.1,2.1-2C216.3,488.9,213.9,487,212.5,488.5z"/>
		<path fill="#010101" d="M267.2,414.7c2.8-3.7,5-6.1,7.4-8.3c2.5-2.5,4.1-5.2,7-6.5c2.7-1.3,6.9-1.5,10.7-2.1
			c2.9-0.4,6.3-0.5,10.3-0.6c1.4-1.3,3.4-1.4,5-1.4c3.2,0,5.9,2.1,8.7,3.2c7.1,2.9,13.9,7,18.2,12.3c5.4,6.7,7.7,15.2,7.5,24
			c0,1-0.4,12.1-2.3,12.5c0,1.2,0,4.9,0,8.4c-0.1,3.6-0.2,7.1-0.2,8.4c-0.2,2.6-1.1,19.5-4.3,19.4c-5.9-0.1-3.5-14.1-6.1-14.2
			c-4.6-0.1-7.5,1.8-9.2,4.1c-2.9,3.9-3.1,9.4-5.7,9.4c-3.6,0-2.8-6.2-6.3-6.2c-0.6,0-2.6,0.1-2.6,13.1c0,2-1.3,3.1-2.8,3.1
			c-2,0-4.4-2-4.4-6.8c0-3.4,1.6-5.5,1.6-7.5c-0.6-2.9-4.8-2.4-7.1-2.7c-0.2,3.4-1.4,4.4-2.8,4.4c-1.3,0-2.8-0.9-3.4-1.6
			c-0.6-0.6-1.1-0.9-1.7-0.9c-2,0-3.2,4.2-3.2,7c0,2.3,0.4,4.5,0.8,6.7c0.2,1.1,1.9,5.5,1.9,9.1c0,2.2-0.6,3.9-2.4,4.4
			c-0.4,0.1-0.8,0.2-1.2,0.2c-4.1,0.1-6.4-5.3-6.5-9c-0.1-6.8,3.1-12.1,3-19.1c0-2.5-1.5-7.7-4-9.1c-0.9,1.2-3,3.5-4.7,3.6
			c-2.9,0.1-3.6-8.3-4.2-16.7c-0.5-7.4-2.7-23.2-1.4-30.4C263.9,420.8,265.7,416.6,267.2,414.7z M284.7,431.6
			c0.1,6.6,1.3,14.2,5.8,19.7c2.8,3.4,3.9,1.6,6.2,4.7c1.4,0,2.7,0,4.1,0c11.2-0.1,15.4-6.8,15.4-16.9c0-1.3-0.7-7.9-1-9.3
			c-0.5-0.5-2.9-1.9-4.5-2.7c-1.2-0.6-1.8-1.1-2.4-1.1c-0.1,0-0.2,0-0.3,0.1c-0.2,0.1-1.6,1.4-2,2.7c0,1.2,0.3,2,0.6,3.2
			c0.3,0.9,0.8,3.3,0.8,4.8c0,1.5-0.2,9-4.1,9c-2.6,0-4.1-6.8-4.2-7.6c0-0.9,0-3.5,0.3-6.6c0.2-2.4,0.7-5.3,0.7-7.5
			c-0.1-2.6-1.1-3-1.1-3.9c-5.2,0.3-3.8,5.6-6.2,9c-1.1,1.5-3.1,2.5-6.7,2.6C285.7,431.6,285.2,431.6,284.7,431.6z"/>
		<path fill="#010101" d="M268.7,415.4c3.8-4.9,9.9-13.4,16.5-15.1c3.7-1,8-1.2,11.9-1.4c1.8-0.1,3.7-0.2,5.5-0.2
			c1.8-0.1,3-1.3,5-1.4c3.3-0.1,8.2,3.1,11,4.4c3.6,1.6,6.9,3.7,10,6.1c6.5,5.1,9.7,12.4,11.1,19.8c0.9,4.5,0.6,9.1,0.2,13.7
			c-0.4,3.7-1.9,6.2-1.8,9.8c0.1,9.2,0,18.7-1.9,27.7c-0.4,1.8-1.5,5.2-3,1.6c-0.7-1.8-0.8-3.9-1-5.8c-0.2-1.7-0.1-5.6-2.4-6.2
			c-3.7-1-8,1.2-10.4,3.5c-1.5,1.5-2.3,3.4-3.1,5.3c-0.6,1.3-1,2.7-1.7,4c-0.7,1.3-2.6-2.7-2.8-3.1c-2.3-4.7-6.4-2.2-7.3,1.4
			c-0.5,1.8-0.5,3.8-0.7,5.6c-0.1,0.8,0.1,7.3-2,6.5c-2.7-1-2.1-5.9-1.7-7.7c0.6-2.9,2.8-7-1.8-8.3c-1.9-0.5-3.7-0.5-5.6-0.7
			c-1-0.1-1.5,0.8-1.6,1.5c-0.5,4.3-4.9-0.1-6.7,0.4c-2.2,0.7-2.9,2.2-3.7,4.2c-2.4,6.1,1.1,12.8,2,18.7c0.5,3.4-4.6,3.7-5.9,0.9
			c-0.8-1.8-0.9-3.7-0.8-5.7c0.1-4.6,2-9.1,2.8-13.7c0.7-4.6,0-10.8-4.2-13.9c-0.6-0.5-1.7-0.6-2.3,0.1c-0.5,0.6-1,1.2-1.5,1.7
			c-2.5,2.7-2.7,0-3.1-1.5c-0.8-2.8-0.9-5.9-1.2-8.9c-0.4-4.7-0.8-9.4-1.2-14C264.3,435.1,262.7,424.2,268.7,415.4
			c1.1-1.7-1.8-3.1-2.9-1.4c-7.7,11.4-4.2,26.1-3.1,38.4c0.5,5.8-0.1,13.3,2.7,18.6c2.4,4.6,6.7,1.5,9.2-1.6c-0.8,0-1.5,0-2.3,0.1
			c8.9,6.6-0.8,20.1,0.6,28.6c0.5,2.8,1.6,6.2,4.2,7.8c1.9,1.2,5.2,1.9,7,0.1c2.2-2.3,2.1-5.3,1.6-8.2c-1-4.9-2.9-9.7-2.1-14.8
			c0.5-3.5,2.1-2.3,4.3-1.2c1,0.5,2.2,0.4,3.3,0.3c2.7-0.4,3.1-3.9,3.3-5.7c-0.5,0.5-1.1,1-1.6,1.5c1.3,0.1,2.5,0.1,3.7,0.3
			c2.6,0.4,0.9,3.9,0.6,5c-0.7,2.3-0.5,4.6,0,6.9c0.7,3.2,3.6,5.2,7,4.5c4.2-0.9,2.9-8.1,3.1-10.7c0.1-1.7,0.2-3.6,1-5.1
			c0.2-0.5,0.2-0.2-0.3-0.1c1.1-0.1,2,2.8,2.4,3.6c0.9,1.9,3.8,3.6,5.8,2c4.9-3.6,2.9-10.6,10.2-12.7c3.2-0.9,2.5,1.8,2.8,3.9
			c0.2,1.6,0.4,3.3,0.8,4.9c0.7,2.7,2.3,4.7,5.3,5.1c5.2,0.7,5.4-13.7,5.6-16.3c0.3-3.7,0.4-7.4,0.5-11.2c0.1-3.1,0.1-6.2,0.1-9.4
			c0,0.1-0.6,0.7,0.1-0.2c0.5-0.6,0.7-1.2,0.9-1.9c2.8-8.3,1.5-19.1-1.5-27.2c-4.6-12.3-16-17.6-27.9-23.5c-3-1.5-6.4-1.7-9.7-0.7
			c-5.1,1.6-11.5,1.3-16.8,2.1c-4.9,0.7-7.8,2.4-10.8,5.8c-3.3,3.7-6.9,7.2-9.9,11.1C264.5,415.6,267.4,417,268.7,415.4z"/>
		<path fill="#010101" d="M283,431.6c0.2,7.3,1.5,14.4,6.1,20.5c1.7,2.3,4.6,2.8,6.4,5c0.9,1,3.8,0.4,4.9,0.4
			c13.2-0.1,18.1-9.9,17.2-20.7c-0.2-2.5-0.4-4.9-0.9-7.4c-0.4-1.9-5.2-3.6-6.7-4.4c-1.5-0.9-2.7-0.6-3.9,0.5
			c-2.4,2.1-1.9,4.3-1.3,6.9c0.7,3,0.9,5.5,0.3,8.5c-0.5,2.7-2.5,3.4-3.7,0.4c-0.4-1-0.7-2.2-0.8-3.2c-0.4-3.7,0.4-7.6,0.8-11.2
			c0.3-2.8-0.5-4.6-1-7.2c-0.2-0.9-1.2-1.1-2.1-1c-2.5,0.4-4.4,1.6-5.1,3.9c-1.5,4.6-2.4,7.8-8.8,7.5c-2.1-0.1-2.1,2.9,0,3
			c2.6,0.1,5.7,0,7.9-1.7c3.2-2.4,2.7-9.2,6.9-9.9c-0.7-0.3-1.4-0.7-2.1-1c0.4,2.2,1,4,0.8,6.4c-0.3,3.5-0.8,6.9-0.8,10.5
			c0,3.1,1.2,6.4,3.3,8.8c2,2.3,5.3,0.3,6.5-1.5c2-2.9,2-7.8,1.4-11c-0.3-1.5-1.3-4.2-0.7-5.5c0.5-1,4.1,1.3,4.5,1.6
			c2.2,1.3,1.8,5.7,1.9,7.9c0.5,5.8-0.9,12.4-6.8,15.5c-2.4,1.2-5.3,1.3-7.9,1.3c-0.9,0-1.8,0-2.7,0c0.7,0-1.8-1.8-2-1.9
			c-7.5-3.7-8.5-14.1-8.6-21.1C286.3,429.6,283,429.7,283,431.6z"/>
		<path fill="#010101" d="M354.4,414.8c3-3.5,5.2-5.7,7.7-7.8c2.6-2.3,4.3-4.9,7.3-6c2.7-1.1,6.9-1,10.8-1.3c2.9-0.1,6.3,0,10.3,0.1
			c1.5-1.1,3.4-1.1,5.1-1c3.2,0.2,5.8,2.5,8.5,3.9c7,3.5,13.5,8,17.6,13.7c5.1,7.1,7,15.7,6.5,24.5c-0.1,1-0.9,12-2.8,12.3
			c-0.1,1.2-0.2,4.9-0.4,8.4c-0.2,3.6-0.5,7.1-0.6,8.3c-0.3,2.6-1.9,19.4-5.1,19.1c-5.9-0.6-2.9-14.4-5.5-14.6
			c-4.6-0.4-7.5,1.2-9.3,3.4c-3.1,3.7-3.5,9.1-6,8.9c-3.6-0.3-2.5-6.4-6-6.7c-0.6,0-2.6-0.1-3.1,12.9c-0.1,2-1.5,3-2.9,2.9
			c-2-0.1-4.3-2.4-4.1-7.1c0.1-3.4,1.9-5.4,2-7.3c-0.5-2.9-4.7-2.8-7-3.2c-0.3,3.4-1.6,4.3-3,4.2c-1.3-0.1-2.8-1.1-3.3-1.8
			c-0.5-0.7-1.1-1-1.7-1c-2-0.1-3.4,4-3.5,6.8c-0.1,2.3,0.2,4.6,0.5,6.8c0.2,1.1,1.6,5.7,1.5,9.2c-0.1,2.2-0.8,3.9-2.6,4.2
			c-0.4,0.1-0.8,0.2-1.2,0.1c-4.1-0.2-6.2-5.8-6.1-9.5c0.2-6.8,3.7-11.8,3.8-18.9c0.1-2.5-1.1-7.8-3.6-9.4c-0.9,1.1-3.1,3.3-4.8,3.2
			c-2.9-0.1-3.2-8.6-3.5-17c-0.2-7.5-1.7-23.3-0.1-30.4C350.8,420.6,352.9,416.6,354.4,414.8z M371.2,432.9
			c-0.2,6.6,0.7,14.3,5,20.1c2.6,3.6,3.8,1.9,6,5.1c1.4,0.1,2.7,0.2,4.1,0.3c11.2,0.8,15.6-5.7,16.1-15.7c0.1-1.3-0.3-7.9-0.6-9.4
			c-0.4-0.6-2.8-2.1-4.4-3c-1.1-0.7-1.8-1.3-2.4-1.3c-0.1,0-0.2,0-0.4,0.1c-0.2,0.1-1.7,1.3-2.1,2.5c-0.1,1.2,0.3,2,0.4,3.2
			c0.3,1,0.7,3.4,0.6,4.8c-0.1,1.4-0.6,9-4.5,8.7c-2.6-0.2-3.8-7.1-3.8-7.9c0-0.9,0.1-3.5,0.6-6.6c0.3-2.4,0.9-5.2,1-7.4
			c0-2.6-0.9-3.1-0.9-4c-5.2-0.1-4,5.3-6.5,8.5c-1.2,1.4-3.2,2.3-6.7,2.1C372.2,433,371.7,433,371.2,432.9z"/>
		<path fill="#010101" d="M355.9,415.6c4-4.6,10.4-12.6,17.2-13.8c3.8-0.7,8.1-0.6,12-0.5c1.8,0,3.7,0.1,5.5,0.2
			c1.8,0.1,3-1.1,5.1-1c3.3,0.1,8,3.7,10.8,5.3c3.5,1.9,6.8,4.2,9.7,6.8c6.3,5.5,9.2,13.1,10.3,20.6c0.7,4.6,0.2,9.2-0.4,13.6
			c-0.5,3.7-2.1,6-2.3,9.7c-0.3,9-0.8,18.2-2.9,27c-0.2,0.9-1.1,5.6-2.7,3.1c-1.1-1.7-1.1-4.2-1.2-6.1c-0.1-2,0.3-5.7-1.8-7.1
			c-2.8-1.8-7.8,0.4-10,1.9c-1.6,1.1-2.8,2.9-3.6,4.5c-1.2,2.4-2.6,7.7-4.7,2.7c-1.8-4.2-6-5-7.5-0.6c-0.6,1.5-0.7,3.3-0.9,4.9
			c-0.2,1.5-0.3,3-0.4,4.5c-0.5,7.9-3.8-0.3-3.9-2.1c-0.1-4,4.4-7.8-0.6-10.9c-1.7-1-4.1-1-6-1.3c-0.9-0.1-1.6,0.7-1.7,1.4
			c-0.7,4.3-4.9-0.5-6.7,0c-2.2,0.5-3,2-3.9,3.9c-2.6,5.9,0.6,12.8,1.2,18.8c0.3,3.4-4.7,3.4-5.9,0.4c-0.8-1.9-0.7-3.8-0.6-5.7
			c0.3-4.6,2.4-9,3.3-13.4c0.9-4.6,0.4-10.8-3.6-14.2c-0.6-0.5-1.7-0.7-2.3-0.1c-0.5,0.6-1,1.1-1.6,1.6c-2.6,2.5-2.7-0.2-3-1.7
			c-0.7-2.9-0.7-6-0.8-8.9c-0.2-4.7-0.4-9.4-0.6-14.1C350.7,435,349.5,423.9,355.9,415.6c1.2-1.6-1.7-3.2-2.9-1.6
			c-8.2,10.8-5.4,25.7-4.7,38.1c0.3,5.9-0.7,13.3,1.9,18.8c2.2,4.7,6.7,2,9.3-0.9c-0.8,0-1.5-0.1-2.3-0.1c8.6,7.3-1.7,20-0.6,28.6
			c0.3,2.8,1.3,6.3,3.9,8.1c1.8,1.3,5.1,2.3,7,0.6c2.3-2.1,2.4-5.1,1.9-8c-0.8-5-2.5-9.9-1.5-15c0.7-3.5,2.2-2.1,4.3-0.9
			c1,0.6,2.1,0.6,3.2,0.5c2.7-0.2,3.2-3.7,3.5-5.5c-0.6,0.5-1.1,0.9-1.7,1.4c1.2,0.2,2.5,0.3,3.7,0.6c2.6,0.6,0.7,4,0.3,5
			c-0.8,2.2-0.7,4.6-0.3,6.9c0.5,3.2,3.4,5.5,6.8,5c4.3-0.5,3.3-7.9,3.6-10.5c0.2-1.7,0.4-3.6,1.2-5.1c0.2-0.4,0.2-0.2-0.3-0.2
			c1.1-0.1,1.9,3,2.2,3.8c0.8,2,3.6,3.8,5.7,2.5c5-3.3,3.3-10.4,10.8-11.9c3.2-0.6,2.4,2,2.6,4.1c0.1,1.7,0.3,3.3,0.6,4.9
			c0.5,2.7,2,4.9,5,5.5c5.1,1,5.9-12.7,6.2-15.2c0.5-3.3,0.7-6.7,1-10.1c0.3-3.3,0.4-6.6,0.5-9.9c0.1-1.9-0.6-0.7-0.1-1.1
			c0.5-0.4,0.8-1,1-1.5c1.6-2.9,1.6-7,1.9-10.3c0.5-5.4,0-10.8-1.5-16.2c-3.6-13-14.2-19.3-26-26.3c-3.5-2.1-6.9-3.2-11-2.2
			c-5.1,1.2-11.5,0.5-16.9,0.8c-4.9,0.3-7.9,1.8-11.1,5c-3.5,3.5-7.2,6.7-10.4,10.4C351.7,415.5,354.6,417.1,355.9,415.6z"/>
		<path fill="#010101" d="M369.5,432.8c-0.1,7.3,0.9,14.5,5.2,20.9c1.6,2.4,4.5,3.2,6.2,5.4c0.8,1,3.8,0.7,4.9,0.8
			c13.1,0.9,18.4-8.5,18-19.4c-0.1-2.5-0.2-5-0.6-7.4c-0.3-1.9-5-3.9-6.5-4.9c-1.5-1-2.7-0.8-3.9,0.2c-2.5,1.9-2.1,4.1-1.6,6.8
			c0.6,3,0.7,5.6,0,8.5c-0.6,2.6-2.7,3.2-3.7,0.2c-0.4-1-0.6-2.2-0.7-3.3c-0.2-3.7,0.7-7.5,1.3-11.1c0.4-2.8-0.3-4.6-0.6-7.3
			c-0.1-0.9-1.2-1.2-2-1.2c-2.6,0.2-4.4,1.3-5.3,3.5c-1.7,4.5-2.7,7.6-9.1,6.9c-2.1-0.3-2.2,2.7-0.1,3c2.6,0.3,5.7,0.4,7.9-1.1
			c3.3-2.2,3.1-9,7.3-9.4c-0.7-0.4-1.3-0.8-2-1.2c0.3,2.3,0.9,4.1,0.6,6.5c-0.4,3.5-1,6.9-1.2,10.4c-0.2,3.1,1,6.5,2.9,9.1
			c1.9,2.5,5.2,0.7,6.6-1c2.1-2.7,2.3-7.6,1.8-10.9c-0.2-1.5-1.1-4.2-0.4-5.5c0.5-1,4.1,1.7,4.4,1.9c2.2,1.4,1.5,5.8,1.6,8
			c0.2,5.8-1.4,12.3-7.5,14.9c-2.4,1-5.3,0.9-7.9,0.7c-0.9-0.1-1.8-0.1-2.7-0.2c0.7,0-1.7-1.9-1.9-2c-7.3-4.3-7.9-14.7-7.7-21.7
			C372.9,431.1,369.6,430.9,369.5,432.8z"/>
		<path fill="#010101" d="M465.2,480.2c0.2-2.7,0.4-5.3,0.6-8c0.1-1-0.1-2.6-0.7-2.7c-0.3,0-0.6,0.2-1,0.9c-0.8,1-0.9,3.3-1.1,4.1
			c-0.5,1.7-1.6,2.9-1.7,5c-0.1,1.6-0.1,3.2-0.2,3.9c0.2,2.5,0.4,5,0.6,7.5c-0.5,6.5-1,13-1.5,19.5c-0.3,1.7-1.2,1.6-4.5,1.1
			c-1.7-0.2-0.8-3.4-3.7-3.8c-0.7,0.6-1.1,1.8-1.2,3.3c-0.1,1,0,2.2,0.2,3.4c0.3,1.9,1.3,3.6,1.8,6c0.4,1.9,0.3,4.4,0.2,6
			c-0.4,4.8-3.1,6.9-6.4,6.5c-3-0.7-5.7-4.4-5.4-8.7c0.3-3.8,1.5-5.3,2.6-16.1c0.1-1,0.1-3.1-0.6-3.2c-0.3,0-0.7,0.3-1.1,1.1
			c-0.9,1.9-2.4,3.5-3.7,3.4c-1.4-0.2-2.8-2.4-3.2-5.3c-0.6-3.2-0.4-8.8-1.1-12.5c-0.4-2.5-0.4-5-0.8-7c-0.5-3-1.3-5-1.2-6.2
			c0.2-2.9,1.1-4.8,3.2-7.6c0.3-5.3,0.7-10.6,1-15.9c0.5-7.1-0.4-13.4-0.8-20c-0.3-6.4,0.1-13.3,0.1-20.2c0.1-1.5,0.2-2.9,0.3-4.4
			c0.2-2.9,0.8-5.8,3.3-6.2c1.5-0.1,9.2,0.4,11,0.6c1.6,0.6,3.3,1.1,4.9,1.7c0.3,0,4.7,0.7,6.4,0.9c4.4,0.6,6.8-0.8,10.6-0.3
			c3.6,0.5,6.7,3.2,10.3,4.2c2.6,0.7,6.9,0.9,8.4,1.9c0.6,0.8,1.3,1.5,1.9,2.3c1.2,0.6,2.9,0.7,3.6,1.3c0.5,0.6,0.1,1.8,1.2,2.3
			c0.5,0.3,1.6,0.5,2.9,0.7c1.2,0.2,2.7,0.4,4.3,1.2c1.1,0.4,1.4,1.6,2.7,2.6c1.7,1.4,1.8,3,1.6,4.9c-0.2,1.2-0.3,2.4-0.5,3.6
			c-0.1,0.9-0.2,1.6,0,2.4c0.7,3.1,1.8,5.9,1.4,9.8c-0.6,5.6-3.3,12.1-7.1,16c-2.1,2.2-3.1,2.3-3.7,4.7c-0.2,0.3-0.2,0.8-0.3,1.3
			c-0.1,1.3,0,3.2-0.1,4.3c-0.2,1.6-1.5,4-1.7,6.2c-0.2,2.6-0.5,5.5-4,4.9c-1.6-0.3-2.3-1.2-2.5-2.6c-0.1-1.8-0.8-3.6-0.7-5.7
			c-0.1-1.8,0.4-4-2-4.4c-2.4-0.4-10.5,1.9-11.2,5.6c-0.3,3.2-0.5,6.4-0.8,9.7c-0.5,5.4-3.3,5.3-5.1,5.1
			C467.1,488.7,465.2,484.5,465.2,480.2z M460.9,445.7c3.4,0.4,6.9,0.9,10.3,1.4c0.9,0.1,1.9-1.2,3.6-1.8c1.4-0.3,3.4,0.4,4.4-0.5
			c1-0.7,1.8-1.8,1.9-2.6c0.2-2.7-2.5-5.1-5.3-5.5c-1.8-0.3-3.2,0.8-3.4,2.2c0,0.2,0,0.5,0.1,0.9c-0.1,1.1-2.5,2-4,1.8
			c-0.8-0.1-1.2-0.4-0.9-4.2c-0.1-2.4-0.3-5.1-1.9-5.3c-3.1-0.4-1.7,2.2-3.9,2.9C461.5,438.6,461.2,442.2,460.9,445.7z"/>
		<path fill="#010101" d="M466.8,480.4c0.2-3,2.1-9.1-0.5-11.8c-0.5-0.5-1.3-0.7-2-0.5c-1.8,0.6-2.4,2.5-2.7,4.2
			c-0.6,3.5-2.1,6.1-2.2,9.8c-0.1,3.1,0.7,6.9,0.5,9.4c-0.4,4.8-0.7,9.5-1.1,14.3c-0.1,1.4-0.2,2.8-0.3,4.1
			c-0.1,1.7-3.2-1.7-3.4-2.1c-0.6-1-1.5-1.4-2.6-1.7c-0.7-0.2-1.4-0.1-1.9,0.5c-2.6,3.6-1.3,8.2,0.1,12.1c1.1,3,1,6.7,0.2,9.7
			c-1.1,4-5.9,2.4-7.5-0.5c-0.9-1.6-0.7-3.3-0.5-4.9c0.4-2.9,1.2-5.7,1.7-8.6c0.4-2.7,2.2-8.1-0.2-10.5c-0.5-0.5-1.3-0.8-1.9-0.5
			c-1,0.5-3.8,5-5,3c-1.8-2.9-1.2-7.4-1.4-10.6c-0.1-2.8-0.6-5.5-0.9-8.2c-0.3-3.8-2.1-7.7-1.2-11.4c0.4-1.9,2.7-3.5,2.8-5.4
			c0.1-1,0.1-2,0.2-3c0.2-3.7,0.5-7.5,0.7-11.2c0.8-12.6-0.8-25.4-0.6-38.1c0.1-3.1-1-13.2,4.2-13c4.6,0.2,8.4,0.6,12.8,2.1
			c3.7,1.3,8.6,1.4,12.3,1.1c4.5-0.4,7.6,0.2,11.8,2.4c3.2,1.7,6.5,2,10,2.7c1.9,0.3,1.9,1.7,3.3,2.7c0.8,0.6,2.1,0.8,3,1
			c0.3,0.1,0.6,1.3,0.8,1.6c1.4,1.4,2.7,1.7,4.7,2c5.2,0.9,7.5,4.4,6.9,8.7c-0.6,4.7,1.4,9.2,1.2,14c-0.4,7.3-4.6,12.9-9.5,18
			c-1.3,1.4-1.5,3.7-1.6,5.5c-0.1,2.8-1,5-1.5,7.7c-0.2,1.4-0.3,2.8-0.7,4.1c-0.9-0.1-1.8-0.3-2.7-0.4c-0.1-0.9-0.2-1.8-0.4-2.7
			c-0.3-1.8,0.4-5.2-1-6.9c-3.9-5.1-14.3,0.5-15.7,4.6c-0.8,2.2-0.5,5.2-0.7,7.5c-0.1,1.6-0.2,3.2-0.6,4.7c-0.5,1.6-1.5,1.8-3,1.6
			C467.4,487.3,466.9,482.5,466.8,480.4c-0.1-1.9-3.3-2.4-3.2-0.4c0.1,3.3,0.8,7.8,4.4,9.8c2.3,1.3,6,1.7,7.7-0.5
			c1.8-2.4,1.8-5.4,2-8.3c0.4-5.2,0.3-8,6.3-10c6.2-2.1,3.8,6.9,5.8,10.3c1.6,2.6,5.9,2.4,7.5,0.4c1-1.3,1.2-3.2,1.3-4.7
			c0.3-2.6,1.6-4.8,1.7-7.5c0.2-3.8,1.1-5.7,3.8-8.3c2.2-2.2,3.7-5,4.9-7.7c2.2-4.7,3-10,2-15.3c-0.5-2.4-1.2-4.5-0.8-6.8
			c0.3-1.9,0.5-3.7,0.2-5.7c-0.5-3.6-5.3-6.3-8.7-7.2c-1.2-0.3-3.2-0.2-3.7-1.5c-0.2-0.5-0.3-1-0.8-1.4c-2.1-1.5-3.4-1.1-5-3.1
			c-0.9-1-2.3-1.3-3.6-1.6c-3.9-1-7.1-1.4-10.8-3.3c-6.4-3.3-11.9-1.1-18.6-2c-7-1-14.9-4.8-21.9-2.5c-3.5,1.2-3.1,6.9-3.3,9.7
			c-0.4,7.3-0.5,14.7-0.2,22c0.2,6.8,1.2,13.5,0.8,20.2c-0.2,3.6-0.5,7.3-0.7,10.9c-0.1,1.4-0.2,2.7-0.3,4.1
			c-0.1,1.5-2.1,3.6-2.7,5.1c-0.8,2.2-0.5,4.3,0.1,6.5c0.9,3.8,1,7.6,1.6,11.4c0.7,4.4-0.9,12.4,2.9,16.1c1.3,1.3,2.3,1.8,4.1,1.5
			c2.4-0.5,2.4-3.5,4.2-4.4c-0.6-0.2-1.3-0.3-1.9-0.5c1.5,1.5-0.5,7.7-0.7,9.5c-0.3,1.9-0.8,3.8-1.2,5.6c-0.8,3.9-0.6,9.4,3.5,12
			c3.5,2.2,8,1.6,9.8-2.1c1.3-2.8,1.3-5.7,1.2-8.7c-0.2-4.3-4.2-9.5-1.3-13.5c-0.6,0.2-1.2,0.3-1.8,0.5c2.1,0.7,1.6,3.6,4.1,3.9
			c2.1,0.3,4.3,0.7,5.7-1c1.9-2.3,1-8.4,1.2-11.1c0.3-3.5,1-7.1,0.7-10.7c-0.2-2.3-0.4-4.5-0.6-6.8c-0.2-2.4,0.3-4.9,1.4-7.1
			c0.6-1.2,0.5-4.8,1.8-5.3c-0.6-0.2-1.3-0.3-1.9-0.5c1.6,1.6-0.1,7.7-0.3,9.5C463.5,481.8,466.7,482.3,466.8,480.4z"/>
		<path fill="#010101" d="M460.8,447.2c2.9,0.4,5.8,0.8,8.7,1.2c0.9,0.1,1.7,0.3,2.6,0.2c0.8-0.1,1.5-0.7,2-1.1c1.4-1,3-0.6,4.7-0.8
			c3.9-0.4,4.5-5,2.9-7.7c-1.6-2.8-7.7-5.4-10-2.3c-1.1,1.6-0.4,3.7-3.2,3.6c0.7,0.6,0.8,0.5,0.5-0.4c0-0.7,0-1.4,0.1-2
			c0.1-1.1-0.1-2.3-0.3-3.4c-0.4-3-4.5-5.3-6.7-2.5c-1.6,2-2.2,3-2.4,5.5c-0.2,2.8-0.4,5.5-0.6,8.3c-0.1,1.9,3.1,2.3,3.3,0.4
			c0.3-3.5,0.5-7.1,0.8-10.6c-0.3,0.4-0.6,0.8-0.9,1.2c0.8-0.4,1.2-0.7,1.8-1.3c0.3-0.3,0.9-2.7,1.5-0.6c0.6,2.1-0.7,5,0.5,7
			c1.5,2.6,6,1.5,7.4-0.3c0.4-0.5,0.5-1.1,0.5-1.6c3.1-1.7,4.9-0.8,5.3,2.5c-0.9,1.2-2.1,1.7-3.6,1.5c-1.1,0-1.7,0.2-2.7,0.6
			c-0.6,0.3-1.5,1.4-2.1,1.3c-3.3-0.5-6.7-0.9-10-1.4C458.9,444,458.7,446.9,460.8,447.2z"/>
	</g>
	<g>
		<g>
			<g>
				<g>
					<g>
						<linearGradient id="SVGID_1_" gradientUnits="userSpaceOnUse" x1="147.054" y1="387.7207" x2="147.054" y2="252.2981">
							<stop  offset="0" style="stop-color:#E7C21F"/>
							<stop  offset="1" style="stop-color:#FEE014"/>
						</linearGradient>
						<path fill="url(#SVGID_1_)" d="M147.3,328.9c-0.2-2.8-0.4-5.5-0.6-8.3c-0.1-1-0.5-2.6-1.2-2.5c-0.3,0-0.6,0.3-1,1.2
							c-0.7,1.2-0.5,3.7-0.6,4.4c-0.3,1.8-1.3,3.4-1.1,5.5c0.1,1.7,0.4,3.3,0.5,4.1c0.6,2.5,1.3,5,1.9,7.5c0.5,6.8,1,13.5,1.5,20.3
							c0,1.8-1,1.9-4.7,2.4c-1.9,0.3-1.4-3.3-4.7-2.8c-0.7,0.9-0.9,2.2-0.7,3.7c0.1,1,0.3,2.3,0.7,3.4c0.6,1.8,2,3.3,3,5.6
							c0.7,1.8,1.1,4.4,1.2,6c0.4,5-2.3,7.9-5.9,8.4c-3.4,0.1-7-2.8-7.4-7.3c-0.3-3.9,0.8-5.8,0.2-17.2c-0.1-1-0.4-3.2-1.2-3
							c-0.3,0-0.7,0.5-1.1,1.4c-0.7,2.2-2,4.3-3.5,4.5c-1.6,0.2-3.4-1.7-4.4-4.5c-1.2-3-1.8-8.9-3.2-12.4c-0.8-2.4-1.2-5-2-6.9
							c-1-2.9-2.2-4.7-2.4-5.9c-0.3-3,0.4-5.2,2.2-8.6c-0.5-5.5-1-11-1.5-16.5c-0.7-7.4-2.6-13.5-4.1-20.1c-1.4-6.5-2-13.6-3.1-20.6
							c-0.1-1.5-0.3-3-0.4-4.6c-0.3-3-0.1-6.2,2.6-7.3c1.7-0.5,10.1-2.2,12.1-2.5c1.9,0.1,3.8,0.2,5.6,0.3c0.3,0,5.3-0.6,7.1-0.9
							c4.9-0.7,7.3-2.8,11.6-3.3c4-0.5,7.9,1.3,11.9,1.3c3,0,7.7-1,9.5-0.5c0.8,0.6,1.6,1.2,2.4,1.8c1.4,0.2,3.3-0.1,4.2,0.3
							c0.6,0.4,0.4,1.8,1.7,2c0.6,0.2,1.9,0.1,3.3-0.1c1.4-0.1,3.1-0.3,5,0c1.2,0.1,1.8,1.2,3.4,1.9c2.1,1,2.5,2.6,2.6,4.5
							c0,1.3,0,2.6,0.1,3.8c0,0.9,0.1,1.7,0.4,2.4c1.2,3,2.9,5.5,3.1,9.6c0.3,5.9-1.6,13.2-5.1,18.3c-2,2.9-3,3.2-3.3,5.8
							c-0.1,0.4-0.1,0.9-0.1,1.4c0.1,1.4,0.5,3.3,0.6,4.4c0.1,1.7-1,4.5-0.8,6.8c0.2,2.7,0.3,5.7-3.6,6.1c-1.8,0.2-2.7-0.6-3.1-2
							c-0.4-1.8-1.4-3.4-1.7-5.6c-0.4-1.8-0.3-4.2-3-3.9c-2.7,0.3-11.2,4.9-11.4,8.9c0.2,3.4,0.5,6.7,0.7,10.1
							c0.4,5.6-2.7,6.4-4.8,6.6C150.8,337,148,333.3,147.3,328.9z M137,295c3.8-0.5,7.7-1,11.5-1.5c1.1-0.1,1.9-1.8,3.6-2.9
							c1.5-0.7,3.8-0.6,4.8-1.7c1-1,1.7-2.4,1.6-3.1c-0.2-2.8-3.5-4.5-6.7-4.1c-2,0.2-3.4,1.7-3.3,3.2c0,0.3,0,0.5,0.2,0.9
							c0.1,1.1-2.4,2.7-4.1,3c-0.9,0.1-1.4-0.1-1.7-4c-0.5-2.4-1.2-5.1-3-4.9c-3.5,0.5-1.5,2.8-3.8,4.1
							C136.4,287.6,136.7,291.3,137,295z"/>
						<g>
							<path fill="#8E2C1D" d="M149.1,328.6c-0.2-3.1,0.8-9.9-2.4-11.8c-0.6-0.4-1.4-0.4-2.1,0c-1.8,1.1-2.2,3.2-2.2,4.9
								c-0.1,4.1-1.2,7.5-0.7,11.7c0.4,3.1,1.8,6.2,2,8.9c0.4,4.9,0.8,9.8,1.1,14.7c0.1,1.4,0.2,2.7,0.3,4.1
								c0.1,1.9-3.9-0.7-4.2-1.1c-0.8-0.8-1.9-0.9-3.1-1c-0.8,0-1.5,0.3-1.9,1c-1.8,3.6-0.8,7.6,1.1,10.7c2.1,3.4,3.3,7.3,2.7,11.4
								c-0.6,4.1-5.4,4.6-7.9,2.2c-1.3-1.2-1.8-3.1-1.9-4.8c-0.2-2.9,0.3-6,0.4-9c0.1-3,1.2-9.6-1.9-11.5c-0.6-0.4-1.5-0.4-2.1,0.1
								c-1.1,0.8-3.4,6.3-5,4.5c-2.4-2.5-2.5-7.3-3.2-10.4c-0.6-2.8-1.6-5.4-2.3-8.1c-1-3.8-3.5-7.3-3.2-11.3
								c0.2-2.1,2.4-4.3,2.2-6.2c-0.1-1-0.2-1.9-0.3-2.9c-0.3-3.8-0.7-7.6-1-11.3c-1.1-12-4.8-23.4-6.4-35.3
								c-0.6-4.6-1.3-9.1-1.6-13.8c-0.3-5.6,11-6.6,15.5-6.3c3.5,0.2,6.8-0.2,10.4-0.7c3.1-0.4,5.9-1.6,8.7-2.7
								c4.8-1.8,9.6,0.4,14.3,0.7c2.8,0.2,5.7-0.6,8.5-0.6c1.2,0,1.9,1.5,2.9,1.8c1,0.3,2.4,0.2,3.4,0.2c0.4,0,0.8,1.1,1.2,1.4
								c2.1,1.3,4.2,0.9,6.9,0.6c8.9-0.8,6.8,7.4,8.1,11.8c0.9,3.2,2.7,5.8,3.1,9.2c0.4,4-0.7,8.3-2.1,12.2c-2,5.6-6.9,8.9-6.2,14.9
								c0.3,2.9-0.3,5.4-0.4,8.3c0,1.5,0.1,3-0.1,4.4c-2.4,1.2-3.6,0.9-3.6-0.9c-0.5-1.3-0.9-2.6-1.2-3.9c-0.6-2.8-1.2-5.9-5.5-5.1
								c-4.6,0.9-9.1,4.4-11.5,7.8c-1.7,2.4-0.6,6.2-0.4,8.6c0.1,1.4,0.2,2.7,0.3,4.1c0.1,1.7,0,4.3-2.5,4.8
								C151.1,335.9,149.6,331.1,149.1,328.6c-0.4-1.9-3.9-1.4-3.5,0.5c0.7,3.3,2.1,7.7,6.4,8.7c2.7,0.6,6.8,0.1,8.3-2.6
								c1.5-2.8,1.1-5.7,0.9-8.6c-0.3-5-1.4-8,4.1-11.7c8.1-5.5,5.6,4.2,8.7,7.5c2.3,2.4,6.4,2.1,8.6-0.7c1-1.3,1-2.9,1-4.3
								c0-2.7,0.6-5.3,0.8-7.9c0.2-3.6-1.1-6,1.6-9.5c2.2-2.8,3.6-5.9,4.7-9.1c1.9-5.3,2.3-11.2,0.6-16.4c-0.8-2.5-2.5-4.6-2.6-7.3
								c0-1.7,0.2-3.7-0.3-5.3c-1-3.3-5.1-6.2-9.4-6.1c-0.9,0-5.5,0.6-5.8-0.2c-0.2-0.4-0.5-1-0.9-1.3c-1.7-1.2-4-0.2-5.8-1.5
								c-3.2-2.4-8.8-0.3-12.9-0.6c-3.1-0.2-5.8-1.5-9-1.3c-3.7,0.2-6.7,1.5-10.1,2.7c-4.2,1.5-9.4,1.6-13.7,1.4
								c-4.2-0.2-8.7,1.1-12.9,2c-5.6,1.3-6,5.4-5.8,9.4c0.4,6,1.5,12,2.3,17.9c1.7,12,5.1,23.5,6.2,35.6c0.4,3.9,1.1,6.8-0.5,10.5
								c-2.8,6.4,1.5,11.9,2.9,17.7c1.5,5.7,2,13.9,6.4,18.4c0.7,0.8,2.7,1.6,3.9,1c1.4-0.7,1.7-0.9,2.7-2c1-1.1,1-3.3,2.2-4.1
								c-0.7,0-1.4,0.1-2.1,0.1c1.8,1.1,0.8,7.7,0.8,9.6c0,2.2-0.2,4.4-0.4,6.6c-0.3,4.8,1.3,8.9,6.1,11.1c3.9,1.8,8.9-1.4,10-5
								c1-3.2,0.7-6.6-0.2-9.6c-1.3-4-5.9-8.4-3.5-13c-0.6,0.3-1.3,0.6-1.9,1c2.5,0.1,2.3,3.2,5.1,2.8c2.4-0.3,4.8-0.5,6-2.6
								c0.6-1,0.2-2.5,0.1-3.5c-0.2-2.9-0.4-5.8-0.7-8.6c-0.3-3.5-0.1-7.2-1-10.6c-0.6-2.3-1.2-4.5-1.7-6.8
								c-0.6-2.4-0.4-5.1,0.3-7.6c0.4-1.5-0.2-5.1,1.1-6c-0.7,0-1.4,0-2.1,0c2,1.2,1.1,7.9,1.3,9.8
								C145.7,331,149.2,330.5,149.1,328.6z"/>
							<path fill="#8E2C1D" d="M137.1,296.5c3.2-0.4,6.5-0.9,9.7-1.3c1-0.1,1.9-0.2,2.9-0.6c0.8-0.3,1.5-1.1,2-1.7
								c1.4-1.4,3.3-1.5,5-2.2c4.2-1.6,4-6.3,1.9-8.6c-2.2-2.4-9.2-3.3-11.2,0.4c-1,1.9,0.2,3.9-2.9,4.6c0.8,0.4,0.9,0.2,0.4-0.7
								c-0.1-0.7-0.2-1.4-0.2-2.1c-0.1-1.1-0.5-2.3-0.9-3.4c-1-2.8-5.7-4.1-7.6-0.7c-1.4,2.5-1.9,3.6-1.7,6.2
								c0.2,2.9,0.5,5.7,0.7,8.6c0.2,1.9,3.7,1.4,3.5-0.5c-0.3-3.7-0.6-7.3-0.9-11c0.1,1.5,0.8,0,1.1-0.8c1.2-3.3,2.2,2,2.3,3.2
								c0.1,1.6,0.4,3.9,2.7,4.1c2.2,0.2,5.2-1.7,6.2-3.3c0.2-0.4,0.4-1,0.3-1.4c-0.1-1.9,6.8-4,6.2,0.7c-0.3,2.1-4.9,2.7-6.5,4
								c-0.6,0.4-1.4,1.8-2.1,1.9c-1.2,0.2-2.5,0.3-3.7,0.5c-2.5,0.3-5,0.7-7.5,1C134.6,293.8,134.8,296.8,137.1,296.5z"/>
						</g>
					</g>
					<g>
						<linearGradient id="SVGID_2_" gradientUnits="userSpaceOnUse" x1="252.8909" y1="380.0171" x2="252.8909" y2="242.6681">
							<stop  offset="0" style="stop-color:#E7C21F"/>
							<stop  offset="1" style="stop-color:#FEE014"/>
						</linearGradient>
						<path fill="url(#SVGID_2_)" d="M205.8,268.2c3.6-4.8,6.4-7.8,9.6-10.7c3.3-3.2,5.3-6.7,9.1-8.4c3.5-1.8,9.1-2.2,14.2-3.1
							c3.9-0.6,8.4-0.9,13.6-1.3c1.8-1.6,4.5-1.8,6.6-1.9c4.2-0.2,7.8,2.3,11.6,3.6c9.5,3.3,18.5,8.1,24.4,14.5
							c7.3,8.1,10.5,18.5,10.5,29.4c0,1.3-0.3,15-2.7,15.5c0,1.5,0.2,6,0.2,10.4c0,4.5-0.1,8.8-0.1,10.4c-0.1,3.2-1,24.2-5.3,24.2
							c-7.8,0.1-5-17.4-8.4-17.3c-6.1,0.1-9.8,2.5-12,5.5c-3.8,5-3.8,11.7-7.2,11.8c-4.7,0.1-3.8-7.6-8.4-7.4c-0.7,0-3.4,0.3-3,16.4
							c0.1,2.4-1.7,3.9-3.6,4c-2.6,0.1-5.8-2.3-6-8.2c-0.1-4.2,2-6.9,2-9.3c-0.8-3.6-6.5-2.8-9.4-3c-0.2,4.2-1.8,5.5-3.5,5.6
							c-1.8,0.1-3.7-0.9-4.5-1.8c-0.8-0.7-1.5-1.1-2.3-1c-2.7,0.2-4.1,5.4-4,8.8c0.1,2.8,0.7,5.6,1.2,8.3c0.3,1.4,2.6,6.8,2.8,11.1
							c0.1,2.7-0.7,4.9-3,5.6c-0.6,0.2-1,0.3-1.6,0.4c-5.4,0.4-8.6-6.2-8.8-10.8c-0.4-8.4,3.8-15.1,3.4-23.8
							c-0.1-3.1-2.2-9.5-5.5-11c-1.1,1.5-3.8,4.5-6.1,4.7c-3.9,0.3-5-10.1-6.1-20.4c-0.9-9.2-4.3-28.5-2.7-37.5
							C201.6,276,203.9,270.6,205.8,268.2z M229.5,288.1c0.3,8.2,2.2,17.5,8.2,24.1c3.7,4,5.2,1.8,8.3,5.5c1.8-0.1,3.6-0.2,5.4-0.3
							c14.8-0.6,20.1-9.2,19.9-21.6c0-1.7-1.1-9.7-1.6-11.5c-0.6-0.6-3.9-2.2-6-3.1c-1.5-0.7-2.5-1.3-3.2-1.3c-0.2,0-0.3,0-0.5,0.1
							c-0.3,0.1-2.1,1.9-2.5,3.4c0,1.5,0.5,2.4,0.9,3.9c0.5,1.1,1.2,4.1,1.2,5.8c0,1.8-0.1,11.1-5.2,11.3c-3.5,0.1-5.7-8.2-5.7-9.2
							c0-1.2-0.1-4.3,0.2-8.2c0.2-3,0.7-6.6,0.7-9.3c-0.2-3.2-1.5-3.6-1.5-4.8c-6.9,0.6-4.9,7.2-7.9,11.4c-1.5,1.9-4,3.3-8.7,3.6
							C230.8,288.1,230.1,288.1,229.5,288.1z"/>
						<g>
							<path fill="#8E2C1D" d="M207.4,268.8c3.6-4.7,7.9-8.7,11.9-13.1c2.5-2.8,4.7-5.1,8.7-6.3c3.9-1.2,8.3-1.6,12.4-2.2
								c3.2-0.4,6.5-0.7,9.7-0.9c3.2-0.2,4.2-1.6,7.5-2c3.8-0.5,7.2,1.3,10.4,2.7c3.4,1.5,6.9,2.6,10.3,4.1
								c13.7,6.3,21.6,16.7,24.4,29.4c1,4.4,1,8.8,0.8,13.2c-0.1,1.9,0.4,9.6-1.7,10.7c-0.5,0.3-0.9,0.8-0.9,1.3
								c0.1,8,0.3,16-0.1,24c-0.2,3.2-0.5,6.3-0.9,9.5c-0.4,2.9-0.5,7.5-2.7,9.9c-1.6,1.8-4.1-8.1-4.2-8.5c-0.3-2.3-0.3-5.1-1.5-7.2
								c-2.8-4.8-13.1,0.8-15.4,3.8c-1.3,1.6-2.3,3.3-3.1,5.2c-0.4,0.9-2.4,7.8-4.5,6.3c-2.2-1.6-1.8-5.3-4.7-6.4
								c-3.1-1.2-4.9-0.1-6,2.5c-1.1,2.6-1.1,5.6-1.2,8.3c0,0.9,0.6,11.4-3.9,8.3c-3.4-2.3-2.3-7.8-1.3-10.9
								c2.5-7.6-2.5-8.5-10.1-8.8c-1,0-1.6,0.8-1.7,1.6c-0.4,4.4-3.3,3.8-6.3,1.8c-0.7-0.5-1.9-0.7-2.8-0.5
								c-2.7,0.7-3.6,2.8-4.4,4.9c-3.2,8.3,2.5,16.7,3.2,24.8c0.5,3-1.5,4.1-6.1,3.3c-0.8-0.7-1.5-1.5-2.1-2.4
								c-1.6-2.3-1.8-5.1-1.9-7.7c0-5.1,1.9-10.2,2.9-15.2c1.2-6.2,0.9-15.1-5.5-19c-0.7-0.4-1.9-0.6-2.5,0.2
								c-0.8,1-1.7,1.9-2.6,2.8c-3,2.9-3.7-0.8-4.1-2c-1.3-3.8-1.6-8.1-2-12.1c-0.6-5.6-1.3-11.2-2-16.8
								C202.1,293.5,199.6,280,207.4,268.8c1.2-1.7-2-3-3.2-1.3c-9.7,13.9-5,31.4-3.1,45.9c1,7.9,0.8,16.5,4,23.9
								c2.6,6.1,8.7,1.7,11.7-2c-0.8,0.1-1.6,0.1-2.5,0.2c11.1,6.8,1.4,24.3,1.6,33.8c0.1,4.9,6.9,17.2,14.4,10.8
								c3-2.5,2.7-6.3,2-9.6c-1.3-5.8-3.5-11.1-3.5-17.2c0-2.9,0.8-6.5,4.5-4.5c1.7,0.9,3.3,1.5,5.3,1.2c3.7-0.6,4.2-4.5,4.5-7
								c-0.6,0.5-1.1,1.1-1.7,1.6c3,0.1,8.5-0.3,7.1,4.1c-0.7,2.3-1.3,4.4-1.4,6.8c-0.1,3.3,1.5,8.3,5.6,9.3
								c3.1,0.8,6.3-0.6,7.1-3.5c1.4-4.9-0.2-10.3,1.2-15.3c0.1-0.2,0.7-1.3,0.5-1.3c1.1-0.4,2.5,2.9,3,3.8c1.1,1.9,4.1,5,7,3.2
								c3.8-2.3,4.3-7.6,6.2-11c1.7-3.1,4.7-4.9,8.5-5.7c3.5-0.8,2.9,1.3,3.3,3.9c0.5,3.9,1.2,14.3,8.5,13.1
								c5.6-0.9,5.5-12.5,5.9-16c1-9.5,0.9-19,0.7-28.5c0-1.9-0.5-0.2,0.6-2.2c0.8-1.3,1-2.9,1.2-4.3c0.6-3.5,0.8-7.1,0.8-10.7
								c0.2-10.8-3.2-21.6-10.7-30.4c-7.6-8.8-21.2-14.5-33.2-18.3c-1.9-0.6-3.8-0.6-5.7-0.5c-2.7,0.2-4.9,1.8-7.5,2
								c-6.6,0.5-13.1,1.3-19.6,2.5c-6.3,1.1-10,3.7-13.8,8c-4.1,4.6-8.6,8.9-12.4,13.8C202.9,269.2,206.1,270.5,207.4,268.8z"/>
							<path fill="#8E2C1D" d="M227.7,288.2c0.4,8.9,2.3,17.7,8.5,24.8c2.3,2.6,5.8,3.6,8.6,5.7c1.3,1.1,5,0.2,6.6,0.1
								c18.6-0.8,22.8-14.9,21.1-28.3c-0.2-1.9,0-5.4-1.3-7.1c-1.4-1.9-7-4.4-9.5-4.9c-2.8-0.5-3.9,1.1-5.3,3
								c-2.1,2.9,0.7,7.5,1.2,10.5c0.4,2.6,0,5.5-0.8,8c-1.9,6.7-5.8-2-6.4-4.4c-1-4.1,0.2-9.2,0.6-13.4c0.4-3.8-0.7-6.3-1.3-9.7
								c-0.1-0.6-1-1.1-1.8-1c-4,0.6-5.9,2.3-7.1,5.5c-0.9,2.4-0.9,5-2.8,7.2c-2,2.2-5.9,2.3-8.8,2.3c-2.3,0-2.2,3,0.1,3
								c4.2,0,8.1-0.7,11.3-3.3c3.6-2.9,1.8-10.8,7.4-11.7c-0.6-0.3-1.2-0.7-1.7-1c0.6,3.1,1.5,5.6,1.2,8.9
								c-0.3,4.1-0.7,8.1-0.7,12.2c0,3.2,1.6,9.1,5.2,10.8c4.6,2.2,7.6-2.4,8.5-5.7c0.6-2,0.7-4.2,0.7-6.2c0-3.5-3.4-9.1-0.5-12.2
								c-0.1,0.1,4.5,2.3,4.9,2.4c2.2,1,2.5,1.6,2.8,3.6c0.4,2.6,0.8,5.3,1,7.9c0.6,7.1-1.6,15-9.4,18.8c-3.3,1.6-7.3,1.7-10.9,1.9
								c-1.5,0.1-2.3,0.2-2.8-0.3c-0.9-1-2.1-1.5-3.5-2c-9.9-3.4-11.3-17.9-11.7-25.8C231.1,286,227.6,286.2,227.7,288.2z"/>
						</g>
					</g>
					<g>
						<linearGradient id="SVGID_3_" gradientUnits="userSpaceOnUse" x1="367.3195" y1="377.7475" x2="367.3195" y2="243.6799">
							<stop  offset="0" style="stop-color:#E7C21F"/>
							<stop  offset="1" style="stop-color:#FEE014"/>
						</linearGradient>
						<path fill="url(#SVGID_3_)" d="M321.4,264.3c3.9-4.4,6.8-7.2,10.1-9.8c3.4-2.9,5.7-6.1,9.6-7.6c3.6-1.4,9.2-1.4,14.3-1.8
							c3.9-0.2,8.4-0.2,13.7,0c1.9-1.4,4.6-1.4,6.7-1.3c4.2,0.2,7.7,3,11.3,4.6c9.3,4.2,18.1,9.7,23.6,16.7
							c6.8,8.8,9.5,19.4,8.9,30.3c-0.1,1.3-1.1,14.9-3.5,15.2c-0.1,1.5-0.2,6-0.4,10.4c-0.2,4.5-0.6,8.8-0.7,10.3
							c-0.3,3.2-2.3,24-6.5,23.7c-7.8-0.6-4.1-17.8-7.5-18c-6.1-0.5-9.9,1.6-12.3,4.4c-4,4.6-4.4,11.4-7.8,11.2
							c-4.7-0.3-3.4-7.9-8-8.2c-0.7,0-3.4-0.1-3.9,16.1c-0.1,2.4-1.9,3.7-3.8,3.7c-2.6-0.1-5.7-2.8-5.5-8.7c0.1-4.2,2.4-6.7,2.5-9.1
							c-0.6-3.6-6.3-3.4-9.3-3.9c-0.4,4.2-2,5.3-3.8,5.2c-1.8-0.1-3.7-1.3-4.4-2.2c-0.7-0.8-1.5-1.2-2.2-1.2c-2.7-0.1-4.4,5-4.4,8.5
							c0,2.8,0.4,5.6,0.8,8.3c0.3,1.4,2.2,7,2.2,11.3c0,2.7-1,4.8-3.3,5.3c-0.6,0.1-1,0.2-1.6,0.2c-5.4-0.1-8.2-7-8.2-11.6
							c0.1-8.4,4.6-14.8,4.7-23.5c0-3.1-1.7-9.6-4.9-11.5c-1.2,1.4-4.1,4.2-6.3,4.1c-3.9,0-4.4-10.5-5-20.9
							c-0.4-9.2-2.8-28.8-0.7-37.6C316.8,271.7,319.4,266.6,321.4,264.3z M344,286.3c-0.1,8.2,1.2,17.7,6.9,24.8
							c3.5,4.4,5.1,2.2,8,6.2c1.8,0.1,3.6,0.2,5.4,0.2c14.8,0.7,20.6-7.3,21-19.7c0.1-1.7-0.6-9.8-0.9-11.6
							c-0.6-0.7-3.7-2.5-5.8-3.7c-1.5-0.9-2.4-1.5-3.2-1.6c-0.2,0-0.3,0-0.5,0.1c-0.3,0.1-2.2,1.7-2.7,3.2c0,1.5,0.4,2.5,0.6,4
							c0.4,1.2,0.9,4.2,0.9,5.9c-0.1,1.8-0.7,11.1-5.8,10.8c-3.5-0.2-5.2-8.7-5.2-9.7c0-1.2,0.1-4.3,0.7-8.2
							c0.4-2.9,1.1-6.5,1.2-9.2c-0.1-3.2-1.3-3.8-1.2-4.9c-6.9,0-5.2,6.7-8.5,10.7c-1.6,1.7-4.2,2.9-8.9,2.8
							C345.3,286.4,344.7,286.4,344,286.3z"/>
						<g>
							<path fill="#8E2C1D" d="M323,265.1c3.8-4.3,8.3-8,12.6-12c2.7-2.5,4.9-4.6,9.1-5.5c3.9-0.9,8.4-0.8,12.5-1
								c3.2-0.2,6.5-0.1,9.7,0c3.2,0.1,4.3-1.2,7.6-1.3c3.9-0.1,7.1,2,10.2,3.7c3.3,1.8,6.8,3.2,10,5.1
								c13.4,7.6,20.6,18.6,22.8,31.5c0.7,4.4,0.6,8.9,0.1,13.3c-0.2,1.9-0.1,9.6-2.3,10.5c-0.5,0.2-0.9,0.7-0.9,1.2
								c-0.3,8-0.5,16-1.4,23.9c-0.3,3.2-0.8,6.3-1.4,9.4c-0.5,2.8-0.9,7.4-3.2,9.6c-1.7,1.7-3.7-8.4-3.7-8.8
								c-0.2-2.3,0-5.1-1.1-7.3c-2.6-5.1-13.1-0.4-15.6,2.3c-1.4,1.5-2.5,3.1-3.4,4.9c-0.3,0.7-3.1,8-5.1,5.6
								c-1.5-1.9-1.5-5.3-4.1-6.5c-3-1.4-4.9-0.6-6.2,2c-1.2,2.5-1.4,5.5-1.6,8.2c-0.1,0.9,0,11.4-4.3,7.9c-3.3-2.6-1.9-8-0.7-11
								c2.9-7.3-2-8.7-9.7-9.7c-1-0.1-1.7,0.7-1.8,1.4c-0.6,4.4-3.5,3.5-6.4,1.2c-0.7-0.5-1.9-0.9-2.8-0.8c-2.7,0.5-3.7,2.4-4.7,4.5
								c-3.6,8,1.6,16.9,1.9,25c0.4,3-1.7,3.9-6.2,2.8c-0.8-0.8-1.4-1.6-1.9-2.6c-1.4-2.4-1.6-5.2-1.4-7.8c0.2-5.1,2.5-10,3.7-14.9
								c1.5-6,1.7-15-4.5-19.5c-0.7-0.5-1.8-0.7-2.5,0c-0.9,0.9-1.8,1.8-2.8,2.6c-3.1,2.6-3.6-1.1-4-2.4c-1.1-3.9-1.1-8.2-1.4-12.2
								c-0.3-5.6-0.7-11.3-1.1-16.9C316.4,289.3,314.6,275.5,323,265.1c1.3-1.6-1.8-3.1-3.1-1.5c-10.4,13-6.6,30.9-5.6,45.5
								c0.6,8-0.1,16.5,2.7,24.2c2.3,6.3,8.6,2.5,11.8-0.9c-0.8,0-1.6,0-2.5,0c10.7,7.8,0.1,24.3-0.2,33.9
								c-0.2,4.8,6,17.8,13.8,12.1c3.1-2.3,3-6.1,2.5-9.4c-1-5.9-3-11.4-2.6-17.5c0.2-2.9,1.1-6.4,4.7-4.1c1.6,1,3.2,1.8,5.3,1.7
								c3.7-0.2,4.4-4.1,4.8-6.6c-0.6,0.5-1.2,0.9-1.8,1.4c3,0.4,8.5,0.5,6.9,4.7c-0.9,2.2-1.5,4.3-1.7,6.7
								c-0.3,3.3,1.1,8.4,5.1,9.8c3.1,1,6.3-0.1,7.3-2.9c1.7-4.8,0.3-10.3,2-15.2c0.1-0.2,0.7-1.3,0.6-1.2c1.1-0.3,2.3,3.2,2.7,4.1
								c1,2,3.8,5.4,6.8,3.8c3.9-1.9,4.7-7.2,6.7-10.4c1.9-2.9,4.9-4.4,8.7-4.9c3.5-0.5,2.9,1.6,3.1,4.2c0.3,3.9,0.5,14.4,7.8,13.9
								c5.7-0.4,6.2-11.9,6.7-15.4c1.5-9.3,1.9-18.9,2.2-28.3c0.1-1.9-0.5-0.3,0.8-2.1c0.8-1.2,1.1-2.8,1.4-4.2
								c0.8-3.5,1.2-7.1,1.4-10.6c0.8-10.7-2-21.8-9.1-31.3c-7.1-9.5-20.4-16.4-32.1-21.3c-1.8-0.8-3.7-1-5.7-1
								c-2.7-0.1-5,1.4-7.6,1.3c-6.6-0.2-13.1,0.1-19.7,0.7c-6.4,0.5-10.2,2.8-14.2,6.7c-4.4,4.3-9.1,8.1-13.1,12.6
								C318.5,265.1,321.6,266.6,323,265.1z"/>
							<path fill="#8E2C1D" d="M342.2,286.2c-0.1,8.9,1.4,17.9,7.2,25.6c2.1,2.8,5.6,4.1,8.3,6.5c1.3,1.2,5,0.7,6.6,0.7
								c18.6,0.9,23.5-12.8,22.6-26.3c-0.1-2,0.3-5.3-0.9-7.2c-1.3-2.1-6.7-5.1-9.2-5.8c-2.7-0.8-4,0.8-5.4,2.5
								c-2.3,2.7,0.3,7.6,0.6,10.6c0.3,2.6-0.3,5.4-1.2,7.9c-2.3,6.5-5.7-2.5-6.2-5c-0.8-4.2,0.7-9.1,1.3-13.3
								c0.6-3.7-0.3-6.3-0.8-9.8c-0.1-0.6-1-1.2-1.7-1.2c-4,0.3-6,1.8-7.4,4.8c-1,2.3-1.1,4.9-3.2,6.9c-2.1,2-6,1.7-8.9,1.5
								c-2.3-0.2-2.3,2.8-0.1,3c4.2,0.4,8.1,0.1,11.4-2.2c3.7-2.6,2.3-10.6,8-11c-0.6-0.4-1.1-0.8-1.7-1.2c0.5,3.2,1.2,5.7,0.7,9
								c-0.6,4-1.2,8-1.3,12.1c-0.1,3.2,1.2,9.3,4.6,11.2c4.5,2.6,7.7-1.7,8.8-4.9c0.7-2,0.9-4.1,1.1-6.2c0.2-3.5-2.9-9.3,0.2-12.2
								c-0.1,0.1,4.4,2.7,4.7,2.9c2.1,1.2,2.4,1.8,2.6,3.8c0.3,2.7,0.5,5.3,0.6,8c0.2,7.1-2.4,14.8-10.3,17.9c-3.4,1.3-7.4,1-11,0.9
								c-1.5-0.1-2.3,0-2.8-0.6c-0.9-1-2-1.7-3.3-2.3c-9.7-4.3-10.4-18.9-10.3-26.8C345.8,284.4,342.2,284.3,342.2,286.2z"/>
						</g>
					</g>
					<g>
						<linearGradient id="SVGID_4_" gradientUnits="userSpaceOnUse" x1="469.2487" y1="383.4606" x2="469.2487" y2="249.4395">
							<stop  offset="0" style="stop-color:#E7C21F"/>
							<stop  offset="1" style="stop-color:#FEE014"/>
						</linearGradient>
						<path fill="url(#SVGID_4_)" d="M463,328.7c0.2-2.8,0.4-5.5,0.6-8.3c0.1-1-0.1-2.7-0.9-2.8c-0.3,0-0.6,0.2-1.1,0.9
							c-0.8,1.1-1,3.5-1.2,4.2c-0.6,1.7-1.7,3-1.9,5.2c-0.1,1.7-0.1,3.3-0.1,4.1c0.3,2.6,0.5,5.2,0.8,7.8c-0.5,6.8-1,13.5-1.5,20.3
							c-0.3,1.8-1.3,1.6-5,1.2c-1.9-0.2-0.9-3.6-4.2-4c-0.8,0.7-1.2,1.9-1.3,3.4c-0.1,1,0,2.3,0.2,3.5c0.3,2,1.5,3.8,2.1,6.3
							c0.5,2,0.4,4.5,0.3,6.2c-0.3,5-3.4,7.2-7.1,6.8c-3.3-0.8-6.4-4.6-6.2-9c0.2-4,1.7-5.5,2.7-16.8c0.1-1,0.1-3.2-0.7-3.3
							c-0.3,0-0.8,0.3-1.3,1.1c-1,1.9-2.6,3.7-4.1,3.5c-1.6-0.2-3.1-2.5-3.7-5.5c-0.7-3.3-0.5-9.2-1.3-13c-0.4-2.6-0.4-5.2-0.9-7.3
							c-0.6-3.1-1.5-5.2-1.4-6.4c0.2-3.1,1.2-5,3.5-7.9c0.3-5.5,0.6-11.1,1-16.6c0.4-7.4-0.6-13.9-1.1-20.8c-0.4-6.7,0-13.9,0-21.1
							c0.1-1.5,0.2-3.1,0.3-4.6c0.2-3.1,0.8-6.1,3.6-6.4c1.7-0.1,10.3,0.4,12.3,0.6c1.8,0.6,3.7,1.2,5.5,1.8c0.3,0,5.2,0.7,7.1,1
							c4.9,0.6,7.5-0.9,11.9-0.3c4,0.5,7.5,3.3,11.5,4.4c2.9,0.8,7.7,1,9.3,2c0.7,0.8,1.4,1.6,2.1,2.4c1.4,0.6,3.2,0.7,4.1,1.4
							c0.6,0.6,0.2,1.8,1.3,2.4c0.6,0.3,1.8,0.5,3.2,0.8c1.4,0.2,3.1,0.5,4.9,1.3c1.2,0.5,1.6,1.7,3,2.7c1.9,1.5,2,3.2,1.9,5.1
							c-0.2,1.3-0.3,2.5-0.5,3.8c-0.1,0.9-0.2,1.7,0.1,2.5c0.8,3.2,2,6.1,1.7,10.2c-0.6,5.8-3.5,12.6-7.7,16.7
							c-2.4,2.3-3.4,2.4-4.1,4.9c-0.2,0.4-0.2,0.9-0.3,1.4c-0.1,1.4,0,3.4-0.1,4.5c-0.2,1.7-1.6,4.1-1.8,6.4
							c-0.2,2.7-0.5,5.7-4.4,5.1c-1.8-0.3-2.6-1.3-2.8-2.7c-0.1-1.8-0.9-3.7-0.8-5.9c-0.1-1.8,0.4-4.2-2.3-4.6
							c-2.7-0.4-11.7,1.9-12.4,5.8c-0.3,3.4-0.5,6.7-0.8,10.1c-0.4,5.6-3.6,5.6-5.7,5.3C465.2,337.6,463,333.2,463,328.7z
							 M457.8,292.8c3.8,0.5,7.7,1,11.5,1.5c1.1,0.1,2.1-1.3,4-1.9c1.6-0.3,3.8,0.4,4.9-0.5c1.1-0.7,2-1.9,2.1-2.7
							c0.2-2.8-2.8-5.3-6-5.7c-2-0.3-3.6,0.8-3.7,2.3c0,0.3,0,0.5,0.1,0.9c-0.1,1.1-2.8,2.1-4.4,1.9c-0.9-0.1-1.3-0.4-1.1-4.4
							c-0.1-2.5-0.4-5.3-2.2-5.6c-3.5-0.4-1.9,2.3-4.4,3.1C458.4,285.4,458.1,289.1,457.8,292.8z"/>
						<g>
							<path fill="#8E2C1D" d="M464.7,328.9c0.2-3.1,2.2-9.5-0.7-12.2c-0.6-0.5-1.4-0.8-2.1-0.5c-1.9,0.7-2.6,2.6-2.9,4.3
								c-0.7,4-2.2,7.1-2.4,11.3c-0.1,3.2,0.9,6.6,0.7,9.2c-0.4,4.9-0.7,9.8-1.1,14.7c-0.1,1.4-0.2,2.7-0.3,4.1
								c-0.1,1.9-3.7-1.7-4-2.2c-0.7-1-1.7-1.4-2.9-1.7c-0.7-0.2-1.5-0.1-2,0.5c-2.3,3-1.9,7.3-0.5,10.8c1.6,3.9,2.1,8,1,11.9
								c-1.1,3.9-6,3.2-8.1,0.2c-1.1-1.6-1.3-3.5-1.1-5.2c0.2-2.9,1.2-5.8,1.7-8.7c0.5-3,2.6-9.1-0.2-11.8c-0.5-0.5-1.4-0.8-2.1-0.5
								c-1.1,0.5-4.2,5.3-5.6,3.1c-2-3.1-1.4-7.8-1.6-11.1c-0.2-2.9-0.8-5.7-1-8.6c-0.4-3.9-2.4-8-1.5-11.9c0.5-2,3-3.6,3.1-5.6
								c0.1-1,0.1-1.9,0.2-2.9c0.2-3.8,0.4-7.6,0.7-11.4c0.7-12-1.2-24.2-1-36.3c0.1-4.7,0.1-9.3,0.5-13.9
								c0.5-5.6,11.8-3.6,16.1-2.2c3.4,1.1,6.7,1.5,10.3,2c3.1,0.4,6-0.1,9-0.4c5-0.5,9.4,2.8,13.9,4.3c2.7,0.9,5.7,0.9,8.5,1.6
								c1.1,0.3,1.6,1.9,2.6,2.5c0.9,0.6,2.3,0.8,3.3,1.1c0.4,0.1,0.6,1.3,1,1.7c1.9,1.8,4,1.9,6.7,2.4c8.8,1.5,5.6,9,6.2,13.7
								c0.4,3.4,1.8,6.4,1.6,9.8c-0.2,4.1-1.9,7.9-3.9,11.4c-2.8,5-8,7-8.3,13c-0.1,2.9-1.1,5.2-1.6,8c-0.3,1.4-0.3,2.9-0.8,4.3
								c-2.5,0.6-3.7,0-3.4-1.8c-0.3-1.4-0.5-2.8-0.6-4.1c-0.2-2.9-0.3-6.1-4.7-6.4c-4.6-0.3-9.6,2-12.4,4.7c-2,1.9-1.5,5.9-1.6,8.4
								c-0.1,1.4-0.2,2.7-0.3,4.1c-0.1,1.7-0.6,4.2-3.2,4.1C465.6,336.5,464.8,331.4,464.7,328.9c-0.1-1.9-3.6-2.4-3.5-0.4
								c0.2,3.4,1,8.1,5,10.1c2.6,1.3,6.7,1.8,8.5-0.4c1.9-2.4,1.9-5.3,2.1-8.3c0.4-5-0.2-8.2,5.7-10.5c8.7-3.3,4.8,5.6,7.4,9.6
								c1.9,2.9,5.9,3.7,8.5,1.5c1.2-1,1.4-2.6,1.6-4c0.4-2.6,1.4-5,1.9-7.6c0.7-3.5-0.2-6.2,2.9-8.9c2.6-2.2,4.4-4.9,6-7.7
								c2.7-4.8,3.9-10.4,3-15.9c-0.4-2.7-1.8-5.2-1.4-7.8c0.2-1.7,0.8-3.6,0.5-5.3c-0.5-3.5-4.1-7.4-8.3-8.4
								c-0.9-0.2-5.5-0.9-5.7-1.7c-0.1-0.5-0.3-1.1-0.7-1.5c-1.5-1.6-3.9-1.2-5.5-2.9c-2.8-3.2-8.6-2.6-12.5-3.9
								c-3-1-5.5-2.9-8.6-3.6c-3.6-0.8-6.8-0.3-10.3,0.1c-4.4,0.4-9.5-0.8-13.7-2.2c-4.1-1.3-8.7-1.2-13-1.3c-5.7-0.2-6.7,3.7-7,7.8
								c-0.5,6-0.3,12.1-0.4,18.2c-0.1,12.2,1.5,24.3,0.8,36.5c-0.2,3.9,0.1,7-2.1,10.2c-3.6,5.6-0.3,12.1,0.3,18.1
								c0.6,6-0.1,14.1,3.6,19.7c0.6,0.9,2.4,2.3,3.7,2c1.5-0.3,1.8-0.4,3-1.3c1.2-0.8,1.5-2.9,2.8-3.5c-0.7-0.2-1.4-0.3-2.1-0.5
								c1.6,1.5-0.4,7.8-0.7,9.6c-0.3,2.1-0.9,4.2-1.3,6.4c-1,4.7-0.1,9.1,4.3,12.5c3.5,2.7,9,0.9,10.6-2.4c1.4-2.9,1.7-6.3,1.2-9.5
								c-0.7-4.3-4.5-9.8-1.5-13.7c-0.7,0.2-1.3,0.3-2,0.5c2.4,0.7,1.8,3.7,4.6,4.1c2.4,0.3,4.8,0.8,6.3-1c0.7-0.8,0.6-2.4,0.6-3.4
								c0.2-2.9,0.4-5.8,0.6-8.6c0.3-3.5,1-7.1,0.6-10.6c-0.2-2.4-0.5-4.7-0.7-7.1c-0.3-2.6,0.3-5.1,1.4-7.4c0.6-1.3,0.5-5.1,2-5.5
								c-0.7-0.2-1.4-0.3-2.1-0.5c1.8,1.7,0,8.1-0.2,10C461.1,330.4,464.6,330.8,464.7,328.9z"/>
							<path fill="#8E2C1D" d="M457.7,294.3c3.2,0.4,6.5,0.8,9.7,1.2c1,0.1,1.9,0.3,2.9,0.2c0.9-0.1,1.6-0.7,2.2-1.1
								c1.6-1,3.4-0.7,5.2-0.8c4.3-0.4,4.9-5.2,3.1-8c-1.8-2.9-8.6-5.6-11-2.4c-1.3,1.6-0.4,3.9-3.6,3.8c0.7,0.6,0.9,0.4,0.5-0.5
								c0-0.7,0-1.4,0.1-2.1c0.1-1.1-0.2-2.4-0.4-3.5c-0.5-3-5-5.4-7.4-2.6c-1.7,2-2.4,3.1-2.6,5.7c-0.2,2.9-0.4,5.8-0.6,8.6
								c-0.1,1.9,3.4,2.3,3.5,0.4c0.3-3.7,0.5-7.4,0.8-11c-0.1,1.5,0.7,0.2,1.2-0.5c1.6-2.9,1.9,2.6,1.8,3.7c-0.1,1.6-0.2,3.9,2,4.7
								c2.1,0.8,5.3-0.3,6.5-1.7c0.3-0.3,0.5-0.8,0.5-1.3c0.1-1.9,7.3-2.1,6,2.2c-0.6,2-5.2,1.4-7,2.2c-0.6,0.3-1.7,1.4-2.4,1.3
								c-1.2-0.2-2.5-0.3-3.7-0.5c-2.5-0.3-5-0.6-7.5-0.9C455.7,291,455.5,294,457.7,294.3z"/>
						</g>
					</g>
				</g>
			</g>
			<g>
				<linearGradient id="SVGID_5_" gradientUnits="userSpaceOnUse" x1="143.622" y1="532.3427" x2="143.622" y2="400.8977">
					<stop  offset="0" style="stop-color:#E7C21F"/>
					<stop  offset="1" style="stop-color:#FEE014"/>
				</linearGradient>
				<path fill="url(#SVGID_5_)" d="M126.6,472.7c1.6,0,3.2,0.1,4.8,0.1c0.6-0.1,4.7,0.2,5.1,0.2c1.4-0.4,2.7-0.8,4.1-1.2
					c2.6-0.6,6.1-1,6.9-1.3c1-0.2,1.1-1.1,0.9-2.9c-0.1-0.9-0.3-1.8-0.7-2.7c-0.3-0.8-1.5-0.2-2.1-1c-0.4-0.7-0.3-2.6-1-3
					c-0.8-0.6-2.6,0.1-3.8-0.3c-0.8-0.3-1.3-1.5-1.8-2c-0.5-0.6-1.3-0.6-2.3-0.5c-1.1,0.2-2.5,0.6-4,0.9c-1.6,0.2-2.1-1.4-3.7-1.7
					c-2.7-0.5-6.9,0.8-9,0.4c-1.5-0.2-1.6-1.9-3.2-2.3c-1.4-0.4-2.9-0.4-4.6-1c-1.7-0.8-2.8-2.8-4-4c-0.8-0.7-1.1-0.8-1.3-2.2
					c-0.3-2.6-0.4-7-0.5-8.3c-0.2-2.4-1-6.1-1.3-9.8c-0.4-3.9-0.4-7.9,1.1-10.5c0.8-1.4,3.9-3.7,5.5-5.8c1.5-2,1.1-2.5,3.7-2.9
					c4.1-0.7,10.4-2,13.3-4.8c0.4-0.6,1-1.2,11.4-2.7c2.8-0.4,6.4-0.3,11-0.8c2.4-0.3,5-1.1,8.9-1.6c0.8-0.1,4.5-0.1,5.5,0
					c1.9,0.1,2.5-0.2,2.5,1.3c0.3,2,2.1,1.2,3,2.3c0.2,2.9,0.8,7.4,1.1,11.6c0.3,4.5-0.2,7.2-0.2,8.2c0,0.7,1.5,3.7,1.6,5.2
					c0,0.6-1.6,5-2.8,5.1c-1.4,0.2-1.9-3.1-2.8-3.9c-1.2-1.2-2.9-1.7-7.2-1.4c-4,0.5-5.4,3.2-9,3.6c-2.9,0.4-2.9-4-6.5-3.5
					c-2,0.3-8.4,2.8-10.3,3.4c-0.3,0.1-1,0.9-1,1.1c0.2,2.3,1,3.2,3.2,3.7c2.4,0.5,6-0.2,8.4-0.4c3.8-0.2,2.2,1.3,4.3,2.1
					c0.6,0.2,1.4,0.1,4-0.2c1-0.1,1.9-0.1,2.8,0c1.3,0.1,2.4,1.7,3.7,1.9c1.7,0.2,3,0.3,3.9,0.8c0.4,0.1,2.3,2.6,2.7,2.7
					c0.6-0.5,1.2-1,1.8-1.6c2.2,0.3,6.2,2.6,8.2,5.6c0.6,1,1,2,1.4,7.8c0.6,9.7,1.2,19.3,1.8,29c0.5,7.6-0.7,12.1-0.4,16.2
					c0.1,1.9,0.9,4,1.2,6.3c0.1,1.5,0.8,4.9,1,8.4c0.3,4.4-0.1,8.8-3.2,9.2c-2.5,0.3-4.1-4.3-4.5-9.6c-0.3-4.3-0.2-8.1-0.1-11.5
					c0-1.1,0.9-5,0.7-8.2c-0.2-2.6-1.1-4.8-3.7-4.4c-7.6,0.9-5.4,8.1-11.3,8.9c-3.2,0.4-3.3-3.4-5.8-3.1c-0.6,0.1-2,1.5-1.9,2.7
					c0.1,1.1,0.6,3.2,0.7,4.8c0,2.2,0.1,4.5,0.1,6.7c0.2,2,0.2,4.5-2.5,4.9c-2.6,0.4-3.4-3-3.6-5.5c-0.1-1-0.1-2-0.1-2.6
					c-0.2-1.9,0.3-2.9,0.2-3.9c-0.1-0.6-0.3-1.3-1.1-2.2c-1.7-1.9-3-4.2-6.4-3.8c-4.7,0.7-3.4,7-7.4,7.6c-3.1,0.5-3.6-5-7.6-4.3
					c-3.3,0.5-4.4,3.4-4.5,8.2c-0.1,1.5,0.3,5.6-1.6,5.9c-1.1,0.2-2.4-1-2.7-3.6c-0.3-3,1.3-4.9,1-8c-0.9-4.5-1.8-9-2.8-13.5
					c-0.5-4.7,0.8-6.2,0.5-9.3c0-0.3-1.2-1.8-1.2-2.2c-0.2-2.1,2-4.5,3.6-4.8C120.3,473.9,123.5,473.3,126.6,472.7z M139.1,526.9
					c0.3,3.2-1.4,5.2-3.1,5.5c-1.4,0.2-2.9-0.9-3.2-3.5c0.1-1.5-0.3-9.1,2.1-9.5C137.4,519,139,525.7,139.1,526.9z"/>
				<g>
					<path fill="#8E2C1D" d="M126.3,474.2c3.1,0.1,6.3,0.1,9.4,0.3c1.2,0,2.3-0.4,3.4-0.7c2.8-0.8,5.7-1.1,8.6-1.8
						c3-0.8,2.8-4.3,2.1-6.4c-0.4-1.1-0.8-2.4-2.2-2.7c-0.9-0.1-1.6-3.2-3.3-3.7c-4.3-1-5.2-3.3-10.2-2.1c-2.1,0.5-3.9-1.3-6-1.5
						c-3.1-0.3-6.7,1.7-9-0.8c-1.9-2.1-5.6-1.1-7.7-3.3c-2-2.1-2.8-3.4-2.9-6.2c-0.4-6.3-1.5-12.5-1.8-18.8
						c-0.2-4.2,1.2-6.7,4.4-9.7c2-1.9,2.8-4.1,5.9-4.6c4-0.7,10.7-1.9,13.3-5.3c1.1-1.5,9.6-1.9,11.4-2.1c3.2-0.4,6.5-0.3,9.7-0.6
						c3.3-0.3,6.4-1.4,9.7-1.6c1.1-0.1,5.2-0.5,5.6,0.4c0.4,1,2.9,2.5,3,3.2c0.5,6.2,0.9,12.2,0.9,18.5c0,2.5,2.1,4,1.1,6.7
						c-1,2.5-1.2-0.2-2-1.4c-1.8-2.6-7.8-2.7-10.7-1.5c-1.5,0.6-2.7,1.2-4,2c-4.1,2.5-3.8-0.1-5.6-1.3c-1.9-1.3-3.7-1.2-6-0.5
						c-4.8,1.3-12.3,2.7-10,8.2c0.7,1.8,3.2,2.3,5.1,2.6c1.5,0.2,3.3-0.1,4.8-0.3c2.7-0.3,3.9,0.5,5.9,1.6c2.8,1.6,6.5-0.8,9.6,1.3
						c1,0.7,2.1,0.7,3.3,0.8c2.2,0.2,2.7,2,4.2,3c0.5,0.4,1.4,0.5,2,0c2.2-1.8,2.9-0.6,5.1,1c2.1,1.5,3,3.1,3.4,5.4
						c0.4,2.7,0.5,5.5,0.6,8.2c0.5,7.3,0.9,14.7,1.4,22c0.2,2.8,0.3,5.5,0.3,8.3c0,2.6-0.3,5.2-0.5,7.9c-0.2,3.3,0.6,6.3,1.2,9.5
						c0.5,2.8,0.8,5.6,1,8.4c0.1,1.7,0.1,3.4-0.2,5.1c-0.8,0.6-1.5,1.2-2.3,1.8c-0.6-1-1.1-2-1.3-3.2c-2.1-6.6-0.6-14.2-0.2-21
						c0.1-2.5,0.4-8.8-3.7-9c-3.9-0.2-6.7,1.5-8.7,4.6c-1.4,2.1-3.4,6.2-6.5,2.6c-0.8-1-1.8-1.4-3.1-1.5c-4.5-0.3-3.6,5.8-3.3,7.9
						c0.4,2.6,0.2,5.4,0.2,8c0,2.3-2.3,2.7-2.8,0.1c-0.2-1.2-0.2-2.5-0.2-3.7c-0.1-2.9,0.5-4.3-1.1-6.8c-1.8-2.8-5.3-5.5-9.3-3.9
						c-3.3,1.4-4.7,9.4-8.2,5.1c-3.6-4.4-9.1-1.9-10.7,3.1c-0.5,1.7-0.5,3.6-0.5,5.3c0,0.9,0,1.8-0.2,2.7c-0.3-0.6-0.6-1.2-0.9-1.8
						c0-1.2,0.1-2.4,0.5-3.6c0.6-2.6,0.5-4.5,0-6.9c-1.1-5.6-2.9-11-2-16.9c0.4-2.5-1.6-8.1,2.2-8.9c2.8-0.6,5.5-1.1,8.3-1.7
						c2.1-0.4,1.8-3.4-0.3-3c-4.9,1-15.2,1.5-14.5,8.5c0.2,2,1.3,3.5,1,5.8c-0.3,1.8-0.5,4-0.2,5.7c0.6,3.1,1.3,6.2,1.9,9.4
						c0.8,3.7,0.5,6.3-0.2,10.2c-0.4,2.5,0.9,7.2,4.4,6.6c3.2-0.5,3-4.8,3-6.9c0-1.5,0.2-3,0.5-4.5c1.2-5.9,4.6-1.9,5.5-0.8
						c0.8,0.9,2,2.4,3.4,2.4c3.3,0,4.7-2,6-4.7c2.6-5.7,8.8-0.6,8.2,3.7c-0.3,2.3-0.1,5.1,0.5,7.3c0.9,3.1,2.8,4.8,6.4,3.6
						c3-1,2.4-5.3,2.4-7.4c0-1.6,0-3.3-0.1-4.9c0-0.7-0.1-1.1-0.2-1.8c0,0.3-0.6-5.4,1.1-3.5c2.1,2.4,5.1,2.6,8,0.7
						c1.2-0.7,1.9-2.1,2.6-3.2c1.7-2.8,6.6-6.8,7.3-1.2c0.3,2.7-0.6,5.5-0.7,8.2c-0.1,3.9-0.1,7.7,0.1,11.5
						c0.2,3.2,1.1,11.5,6.2,10.9c5.8-0.7,4.8-9.1,4.5-12.6c-0.6-6.7-2.3-12.9-1.7-19.8c0.4-4.5,0.2-8.8-0.1-13.2
						c-0.5-8.3-1-16.5-1.6-24.8c-0.3-4.4-0.4-7.8-3.5-11.1c-1.6-1.6-4-3.4-6.5-3.9c-2-0.4-2.6,0.4-4,1.7c0.7,0,1.3,0,2,0
						c-1.1-0.8-1.7-2.3-3.1-2.9c-2.2-0.8-4.5-1.6-6.6-2.4c-2-0.7-4-0.4-6.2-0.2c-2.2,0.3-2.5-1.4-4.4-2c-1.9-0.5-4.6,0.1-6.6,0.3
						c-1.1,0.1-7.8-1.2-4.1-2.5c1.2-0.4,2.3-0.9,3.5-1.3c3-1.1,5.5-1.8,7.6,0.6c0.8,0.9,2.2,1.7,3.6,1.4c5.2-1.2,12.7-7.4,15.7-0.8
						c1.1,2.4,3.4,3.5,5.5,1c2.5-3.1,2.2-5.9,1-9.1c-0.7-2-0.3-4-0.2-6.1c0.1-4.1-0.5-8.2-0.9-12.2c-0.4-3.4-1.6-5-4.4-7.2
						c-2.4-1.9-10.9-0.1-13.7,0.5c-6.2,1.2-12.4,1.1-18.6,2c-2.3,0.4-6.4,0.6-8.4,2.2c-1.8,1.5-3.7,2.5-6.1,3.2
						c-2.6,0.9-5.9,0.7-8.4,1.9c-1.3,0.6-1.9,1.3-2.7,2.4c-1.6,2.4-5,4.3-6.2,6.9c-2.5,5.5-1.3,11.3-0.5,16.7
						c0.4,2.5,0.7,4.9,0.8,7.4c0.1,2.1-0.4,5.3,0.8,7c1.8,2.6,3.9,5.1,7.3,6.1c2.7,0.8,4.7,2.8,7.6,3c1.4,0.1,3-0.2,4.4-0.4
						c2.9-0.4,3.9,1.3,6.3,1.6c1.5,0.2,2.7-0.2,4.3-0.6c2.9-0.7,2.6,1.5,4.5,2.2c0.9,0.3,3.3-0.2,3.6,1.1c0.2,0.9,0.3,1.7,1.2,2.1
						c0.9,0.5,3.2,3.5,1.7,3.9c-2.2,0.5-4.4,0.6-6.6,1.2c-4.5,1.3-8.5,0.9-13.2,0.8C124.8,471.1,124.2,474.1,126.3,474.2z"/>
					<path fill="#8E2C1D" d="M137.6,527.1c0,1.1,0,3.3-1.6,3.7c-1.3,0.3-1.5-2.1-1.5-2.7c0-1.7,0-3.4,0.3-5.1
						c0.1-0.7,0.2-1.7,0.7-2.3c-0.5,0-0.6,0.1-0.2,0.4c0.4,0.4,0.6,0.9,0.8,1.3C136.8,523.8,137.4,525.5,137.6,527.1
						c0.2,1.9,3.4,1.4,3.1-0.5c-0.3-2.7-1.4-7-4-8.4c-3.6-1.9-4.9,3.3-5.2,5.6c-0.3,3-1,8.3,2.5,9.7c4.5,1.7,6.8-3.4,6.7-6.9
						C140.7,524.7,137.5,525.2,137.6,527.1z"/>
				</g>
			</g>
			<g>
				<linearGradient id="SVGID_6_" gradientUnits="userSpaceOnUse" x1="217.4397" y1="508.0073" x2="217.4397" y2="395.2298">
					<stop  offset="0" style="stop-color:#E7C21F"/>
					<stop  offset="1" style="stop-color:#FEE014"/>
				</linearGradient>
				<path fill="url(#SVGID_6_)" d="M209.7,485.4c-0.5,0.8-1.3,1.3-1.8,1.7c-2.6-0.6-3.2-2.9-3.4-7.9c0-0.5-0.5-0.9-1.1-0.8
					c-0.4,0-1,0.3-1.5,1.1c-0.8,1.1-1.3,3.8-1.1,6.4c0.8,4,3.7,6.9,3.9,10.8c0.1,2.9-0.8,10.8-4.7,11.2c-3.8,0.4-5-3.5-5.2-7.8
					c-0.1-2.4,0.1-4.8,0.3-6.9c0.2-2.1,0.2-4.2,0.1-6c-0.2-3.3-0.7-5.9-0.7-7.3c-0.6-6.9-5.1-11.7-7.2-17.9
					c-1.8-5.1-3.4-18.3-3.7-23.9c-0.1-1.4-0.5-3.7-0.6-6.3c-0.1-2.4-0.1-4.9,0.4-7.2c0.5-2.9,3.1-4.6,3.8-7.1
					c1.3-4.3,1.5-6.1,4.2-8.7c2.6-2.7,7.7-5.6,9-9.3c6-1,11-3.3,16.9-3.8c1.1-0.1,2.4-0.4,4-0.5c1.5-0.1,3.2,0,4.8,0.6
					c3.7,1.3,6.5,1.1,8.7,1.7c7.5,1.7,11.6,4.3,11.8,10.9c0.1,5.2-5.1,7.4-4.9,12.9c0,0.4,1.3,1.5,1.4,5.1c-0.2,2.4-1.3,5.1-4.7,5.3
					c-2.3,0.1-5-2.6-5.1-4.7c0-1.2,0.6-2.6,0.6-3.8c0-1.3-1-1.9-2.5-1.8c-2,0.1-4.7,1.1-5.9,1.9c0,0-0.9,2.7-1.8,4.1
					c-0.9,1.3-0.9,2.9-3,3c-0.6,0-2.2,0.1-3.2-1.3c-0.3-0.6-0.3-2.6-0.6-7.5c0-0.9-0.2-1.6-0.8-1.6c-0.2,0-0.5,0-0.8,0.3
					c-0.7,0.5-1.3,1.8-2.2,2.5c-1,0.7-2.5,1.3-3,1.8c-2.4,2.5-3.1,5.6-2.8,11.6c0.1,1,2,10.3,2,11.2c2.9,5.9,7.7,10.1,14.8,9.6
					c7-0.5,17.8-3.1,20.8-11.1c0.5-1.4,2.6-3.3,4.5-3.4c1.3-0.1,2.4,0.8,2.9,3.4c-0.3,1.3-0.6,2.5-0.9,3.8c0,1.1,0.1,2.1,0.1,3.2
					c0.1,2.8,0.2,5.9,0.4,11.4c0.1,4.1,0,8.2-0.8,11.5c-0.3,1.3-1.9,1.6-2.8,1.7c-3,0.2-2.3-5.2-4.4-5c-2.7,0.1-3.8,2.4-4.8,5.2
					c-0.8,2.4-1.5,5.1-1.9,5.9c-0.4,1.1-1.7,3.2-2.9,3.3c-3.7,0.2-2.2-5.7-6.3-5.4c-3,0.2-3.5,2.5-3.4,5.1c0.1,2.5,1.8,6.2,1.9,9.3
					c0.1,3-0.8,5.6-4.1,5.9c-3,0.2-3.5-4.3-3.7-6c0-0.1,0-0.1,0-0.2c0-0.8,0.5-4.5,0.5-6.9c0.1-0.8,0-1.5,0-2.1
					c-0.1-3.1-1.5-5.9-5.5-5.7C211.5,481.1,210.7,483.6,209.7,485.4z"/>
				<g>
					<path fill="#8E2C1D" d="M208.5,484.5c-2.6,2.8-2-4.7-2.5-5.8c-0.6-1.1-0.9-1.4-2.2-1.8c-3.8-1.1-4.5,5.9-4.6,7.6
						c-0.4,5.5,4.5,9.6,3.8,15.4c-0.2,1.6-1.8,9.6-5.3,5.5c-2.4-2.8-1.3-9-1-12.3c0.4-5,0.2-10.5-0.9-15.4
						c-1.5-6.4-5.6-11.7-7.4-17.9c-1.4-5-2-10.4-2.6-15.6c-0.7-6.3-1.8-12.9-0.8-19.3c0.4-2.5,2.8-4.7,3.8-7.1
						c1.1-2.9,1.4-5.5,3.8-8c2-2.1,4.6-3.8,6.7-5.9c0.8-0.8,1.4-1.7,2-2.6c0.8-1.2,4.1-1.4,5.3-1.7c4-1,7.8-2,11.9-2.5
						c3.9-0.5,6.9,0.3,10.6,1.1c6.7,1.4,14.5,1.7,15.7,9.1c0.8,5-4.6,9.1-4.8,14.2c-0.1,2,1.7,3.2,1.3,5.7c-0.2,0.5-0.4,1.1-0.6,1.6
						c-4.7,1.2-6.5-0.1-5.4-4c0.3-1.3,0.1-1.9-0.2-3.1c-1-3.2-7.4-1.2-9.4-0.1c-1.5,0.8-1.7,1.2-2.3,2.6c-0.5,1.3-1.1,2.5-1.8,3.7
						c-1.9,1.2-2.8,1.1-2.7-0.1c-0.1-0.6-0.1-1.2-0.1-1.8c-0.1-1.3,0.7-8.6-3.1-7.3c-2.1,0.7-2.7,2.5-4.5,3.6
						c-2,1.2-3.1,2.2-4.2,4.2c-1.8,3.3-1.6,8-1,11.4c0.5,3,0.5,7.5,1.9,10.1c4.7,8.9,11.9,11.8,22.6,9.7c4.5-0.9,8.7-2.8,12.2-5.7
						c1.8-1.4,2.9-3.4,3.8-5.4c0.8-1.9,4.7-2.4,4.1-0.1c-0.2,0.9-0.5,1.9-0.7,2.8c-0.7,3,0.1,7.1,0.3,10.2c0.1,3.3,0.3,6.6,0.2,10
						c0,0.4-1.2,7.6-2.4,6.1c-0.7-0.8-0.7-2.1-1.2-2.9c-1.2-2.1-4.2-2.3-6.1-0.4c-1.5,1.5-2.2,3.2-3,5.1c-0.3,0.9-3,10.4-4.9,5.9
						c-1.2-2.8-3.3-3.6-6.4-2.9c-4.1,0.9-3.3,6.7-2.7,9.1c0.3,1.4,0.8,2.8,1.1,4.1c0.1,0.8,0.2,1.6,0.4,2.4c0.6,2.5-0.8,3.3-4,2.5
						c-0.6-1.5-0.6-3.1-0.5-4.7c0.3-3.7,1.6-9.5-1.4-12.4c-4.4-4.2-8.4-0.9-10.6,3.4c-0.9,1.8,1.9,3,2.9,1.3
						c0.2-0.4,0.4-0.8,0.6-1.2c0.7-2.3,2.5-2.3,5.4,0c0.4,1.1,0.3,2.7,0.3,3.9c-0.1,2.3-0.4,4.6-0.5,6.9c-0.1,2.8,1,6,3.7,7.4
						c2.5,1.3,6.1-1.1,6.8-3.4c0.6-1.9,0.7-3.7,0.3-5.6c-0.3-1.4-0.6-2.8-1-4.2c-0.3-1.1-0.6-2.2-0.7-3.3c-0.6-2.3,0.5-3,3.3-2.2
						c0.8,1.6,2.4,5.2,5.2,4c4.1-1.8,4.8-6.7,5.9-10.3c0.2-0.7,2.5-5.4,3.5-2.5c0.2,0.6,0.5,1.2,0.8,1.8c0.5,1,1.7,1.5,2.9,1.7
						c4.9,0.7,5.2-4.9,5.5-7.9c0.6-5.7-0.1-11.6-0.3-17.3c0-1.2-0.4-2.8-0.1-4c0.3-1.2,1.2-3,0.8-4.3c-0.9-3-2.5-4.9-6.1-4.1
						c-1.4,0.3-3.2,1.9-3.8,3c-1.8,3.2-3.1,5.5-6.5,7.5c-4.7,2.9-11.9,4.3-17.2,3.4c-6.8-1.2-9.1-7.7-10.2-13.1
						c-0.8-4.3-1.6-8.4-0.8-12.9c0.6-3.2,3.1-3.5,5.1-5.6c0.3-0.3,0.5-0.6,0.8-0.8c1-0.7,1-1,0.1-1.1c0.3,1.7,0.2,3.6,0.3,5.4
						c0.2,2.6,1.1,4.3,4.1,4.8c3.9,0.6,5.5-3.7,6.6-6.2c0.8-1.9,0.2-1.3,2.4-2.1c4.8-1.9,3.3,0.9,3.2,2.3c-0.2,2.1,0.4,3.5,1.8,5.2
						c2.5,2.8,6.4,2.6,9.2,0.2c2.8-2.4,2.1-7.1,0.8-9.8c-1.2-2.4,1.7-5.6,3-7.7c1.4-2.2,1.8-4.4,1.6-6.8
						c-0.7-10.3-13.2-10.5-21.7-12.8c-5.4-1.5-11.8,0-17.2,1.4c-2.7,0.7-7.6,1.2-9.8,2.5c-0.7,0.4-0.8,1.2-1.1,1.8
						c-0.9,1.9-3.3,3.6-4.9,5c-4,3.3-6,6.1-7.3,10.7c-0.8,2.7-3,4.7-3.8,7.3c-1.1,3.6-1,7.2-0.7,10.8c0.8,9.5,1.3,19.6,4.3,28.7
						c2.1,6.3,6.5,11.5,7.2,18.3c0.6,6.5,0.1,12.9,0.3,19.4c0.1,3.3,1.2,9,5.7,9.1c4.7,0.1,6.3-4.3,7-8c1.2-5.7-1.3-9.6-3.2-14.6
						c-0.8-2.1,0.4-3.9,0.3-5.9c0.1,1.4,0.3,2.7,0.7,4c0.4,1.7,1.8,3,3.5,3.6c0.5,0.2,1.2,0.2,1.6-0.1c0.9-0.7,1.4-1.1,2.1-2
						C212.3,484.9,209.9,483,208.5,484.5z"/>
				</g>
			</g>
			<g>
				<linearGradient id="SVGID_7_" gradientUnits="userSpaceOnUse" x1="298.3951" y1="501.7095" x2="298.3951" y2="391.8248">
					<stop  offset="0" style="stop-color:#E7C21F"/>
					<stop  offset="1" style="stop-color:#FEE014"/>
				</linearGradient>
				<path fill="url(#SVGID_7_)" d="M263.2,410.7c2.8-3.7,5-6.1,7.4-8.3c2.5-2.5,4.1-5.2,7-6.5c2.7-1.3,6.9-1.5,10.7-2.1
					c2.9-0.4,6.3-0.5,10.3-0.6c1.4-1.3,3.4-1.4,5-1.4c3.2,0,5.9,2.1,8.7,3.2c7.1,2.9,13.9,7,18.2,12.3c5.4,6.7,7.7,15.2,7.5,24
					c0,1-0.4,12.1-2.3,12.5c0,1.2,0,4.9,0,8.4c-0.1,3.6-0.2,7.1-0.2,8.4c-0.2,2.6-1.1,19.5-4.3,19.4c-5.9-0.1-3.5-14.1-6.1-14.2
					c-4.6-0.1-7.5,1.8-9.2,4.1c-2.9,3.9-3.1,9.4-5.7,9.4c-3.6,0-2.8-6.2-6.3-6.2c-0.6,0-2.6,0.1-2.6,13.1c0,2-1.3,3.1-2.8,3.1
					c-2,0-4.4-2-4.4-6.8c0-3.4,1.6-5.5,1.6-7.5c-0.6-2.9-4.8-2.4-7.1-2.7c-0.2,3.4-1.4,4.4-2.8,4.4c-1.3,0-2.8-0.9-3.4-1.6
					c-0.6-0.6-1.1-0.9-1.7-0.9c-2,0-3.2,4.2-3.2,7c0,2.3,0.4,4.5,0.8,6.7c0.2,1.1,1.9,5.5,1.9,9.1c0,2.2-0.6,3.9-2.4,4.4
					c-0.4,0.1-0.8,0.2-1.2,0.2c-4.1,0.1-6.4-5.3-6.5-9c-0.1-6.8,3.1-12.1,3-19.1c0-2.5-1.5-7.7-4-9.1c-0.9,1.2-3,3.5-4.7,3.6
					c-2.9,0.1-3.6-8.3-4.2-16.7c-0.5-7.4-2.7-23.2-1.4-30.4C259.9,416.8,261.7,412.6,263.2,410.7z M280.7,427.6
					c0.1,6.6,1.3,14.2,5.8,19.7c2.8,3.4,3.9,1.6,6.2,4.7c1.4,0,2.7,0,4.1,0c11.2-0.1,15.4-6.8,15.4-16.9c0-1.3-0.7-7.9-1-9.3
					c-0.5-0.5-2.9-1.9-4.5-2.7c-1.2-0.6-1.8-1.1-2.4-1.1c-0.1,0-0.2,0-0.3,0.1c-0.2,0.1-1.6,1.4-2,2.7c0,1.2,0.3,2,0.6,3.2
					c0.3,0.9,0.8,3.3,0.8,4.8c0,1.5-0.2,9-4.1,9c-2.6,0-4.1-6.8-4.2-7.6c0-0.9,0-3.5,0.3-6.6c0.2-2.4,0.7-5.3,0.7-7.5
					c-0.1-2.6-1.1-3-1.1-3.9c-5.2,0.3-3.8,5.6-6.2,9c-1.1,1.5-3.1,2.5-6.7,2.6C281.7,427.6,281.2,427.6,280.7,427.6z"/>
				<g>
					<path fill="#8E2C1D" d="M264.7,411.4c3.8-4.9,9.9-13.4,16.5-15.1c3.7-1,8-1.2,11.9-1.4c1.8-0.1,3.7-0.2,5.5-0.2
						c1.8-0.1,3-1.3,5-1.4c3.3-0.1,8.2,3.1,11,4.4c3.6,1.6,6.9,3.7,10,6.1c6.5,5.1,9.7,12.4,11.1,19.8c0.9,4.5,0.6,9.1,0.2,13.7
						c-0.4,3.7-1.9,6.2-1.8,9.8c0.1,9.2,0,18.7-1.9,27.7c-0.4,1.8-1.5,5.2-3,1.6c-0.7-1.8-0.8-3.9-1-5.8c-0.2-1.7-0.1-5.6-2.4-6.2
						c-3.7-1-8,1.2-10.4,3.5c-1.5,1.5-2.3,3.4-3.1,5.3c-0.6,1.3-1,2.7-1.7,4c-0.7,1.3-2.6-2.7-2.8-3.1c-2.3-4.7-6.4-2.2-7.3,1.4
						c-0.5,1.8-0.5,3.8-0.7,5.6c-0.1,0.8,0.1,7.3-2,6.5c-2.7-1-2.1-5.9-1.7-7.7c0.6-2.9,2.8-7-1.8-8.3c-1.9-0.5-3.7-0.5-5.6-0.7
						c-1-0.1-1.5,0.8-1.6,1.5c-0.5,4.3-4.9-0.1-6.7,0.4c-2.2,0.7-2.9,2.2-3.7,4.2c-2.4,6.1,1.1,12.8,2,18.7c0.5,3.4-4.6,3.7-5.9,0.9
						c-0.8-1.8-0.9-3.7-0.8-5.7c0.1-4.6,2-9.1,2.8-13.7c0.7-4.6,0-10.8-4.2-13.9c-0.6-0.5-1.7-0.6-2.3,0.1c-0.5,0.6-1,1.2-1.5,1.7
						c-2.5,2.7-2.7,0-3.1-1.5c-0.8-2.8-0.9-5.9-1.2-8.9c-0.4-4.7-0.8-9.4-1.2-14C260.3,431.1,258.7,420.2,264.7,411.4
						c1.1-1.7-1.8-3.1-2.9-1.4c-7.7,11.4-4.2,26.1-3.1,38.4c0.5,5.8-0.1,13.3,2.7,18.6c2.4,4.6,6.7,1.5,9.2-1.6
						c-0.8,0-1.5,0-2.3,0.1c8.9,6.6-0.8,20.1,0.6,28.6c0.5,2.8,1.6,6.2,4.2,7.8c1.9,1.2,5.2,1.9,7,0.1c2.2-2.3,2.1-5.3,1.6-8.2
						c-1-4.9-2.9-9.7-2.1-14.8c0.5-3.5,2.1-2.3,4.3-1.2c1,0.5,2.2,0.4,3.3,0.3c2.7-0.4,3.1-3.9,3.3-5.7c-0.5,0.5-1.1,1-1.6,1.5
						c1.3,0.1,2.5,0.1,3.7,0.3c2.6,0.4,0.9,3.9,0.6,5c-0.7,2.3-0.5,4.6,0,6.9c0.7,3.2,3.6,5.2,7,4.5c4.2-0.9,2.9-8.1,3.1-10.7
						c0.1-1.7,0.2-3.6,1-5.1c0.2-0.5,0.2-0.2-0.3-0.1c1.1-0.1,2,2.8,2.4,3.6c0.9,1.9,3.8,3.6,5.8,2c4.9-3.6,2.9-10.6,10.2-12.7
						c3.2-0.9,2.5,1.8,2.8,3.9c0.2,1.6,0.4,3.3,0.8,4.9c0.7,2.7,2.3,4.7,5.3,5.1c5.2,0.7,5.4-13.7,5.6-16.3
						c0.3-3.7,0.4-7.4,0.5-11.2c0.1-3.1,0.1-6.2,0.1-9.4c0,0.1-0.6,0.7,0.1-0.2c0.5-0.6,0.7-1.2,0.9-1.9c2.8-8.3,1.5-19.1-1.5-27.2
						c-4.6-12.3-16-17.6-27.9-23.5c-3-1.5-6.4-1.7-9.7-0.7c-5.1,1.6-11.5,1.3-16.8,2.1c-4.9,0.7-7.8,2.4-10.8,5.8
						c-3.3,3.7-6.9,7.2-9.9,11.1C260.5,411.6,263.4,413,264.7,411.4z"/>
					<path fill="#8E2C1D" d="M279,427.6c0.2,7.3,1.5,14.4,6.1,20.5c1.7,2.3,4.6,2.8,6.4,5c0.9,1,3.8,0.4,4.9,0.4
						c13.2-0.1,18.1-9.9,17.2-20.7c-0.2-2.5-0.4-4.9-0.9-7.4c-0.4-1.9-5.2-3.6-6.7-4.4c-1.5-0.9-2.7-0.6-3.9,0.5
						c-2.4,2.1-1.9,4.3-1.3,6.9c0.7,3,0.9,5.5,0.3,8.5c-0.5,2.7-2.5,3.4-3.7,0.4c-0.4-1-0.7-2.2-0.8-3.2c-0.4-3.7,0.4-7.6,0.8-11.2
						c0.3-2.8-0.5-4.6-1-7.2c-0.2-0.9-1.2-1.1-2.1-1c-2.5,0.4-4.4,1.6-5.1,3.9c-1.5,4.6-2.4,7.8-8.8,7.5c-2.1-0.1-2.1,2.9,0,3
						c2.6,0.1,5.7,0,7.9-1.7c3.2-2.4,2.7-9.2,6.9-9.9c-0.7-0.3-1.4-0.7-2.1-1c0.4,2.2,1,4,0.8,6.4c-0.3,3.5-0.8,6.9-0.8,10.5
						c0,3.1,1.2,6.4,3.3,8.8c2,2.3,5.3,0.3,6.5-1.5c2-2.9,2-7.8,1.4-11c-0.3-1.5-1.3-4.2-0.7-5.5c0.5-1,4.1,1.3,4.5,1.6
						c2.2,1.3,1.8,5.7,1.9,7.9c0.5,5.8-0.9,12.4-6.8,15.5c-2.4,1.2-5.3,1.3-7.9,1.3c-0.9,0-1.8,0-2.7,0c0.7,0-1.8-1.8-2-1.9
						c-7.5-3.7-8.5-14.1-8.6-21.1C282.3,425.6,279,425.7,279,427.6z"/>
				</g>
			</g>
			<g>
				<linearGradient id="SVGID_8_" gradientUnits="userSpaceOnUse" x1="384.7778" y1="502.6457" x2="384.7778" y2="394.8592">
					<stop  offset="0" style="stop-color:#E7C21F"/>
					<stop  offset="1" style="stop-color:#FEE014"/>
				</linearGradient>
				<path fill="url(#SVGID_8_)" d="M350.4,410.8c3-3.5,5.2-5.7,7.7-7.8c2.6-2.3,4.3-4.9,7.3-6c2.7-1.1,6.9-1,10.8-1.3
					c2.9-0.1,6.3,0,10.3,0.1c1.5-1.1,3.4-1.1,5.1-1c3.2,0.2,5.8,2.5,8.5,3.9c7,3.5,13.5,8,17.6,13.7c5.1,7.1,7,15.7,6.5,24.5
					c-0.1,1-0.9,12-2.8,12.3c-0.1,1.2-0.2,4.9-0.4,8.4c-0.2,3.6-0.5,7.1-0.6,8.3c-0.3,2.6-1.9,19.4-5.1,19.1
					c-5.9-0.6-2.9-14.4-5.5-14.6c-4.6-0.4-7.5,1.2-9.3,3.4c-3.1,3.7-3.5,9.1-6,8.9c-3.6-0.3-2.5-6.4-6-6.7c-0.6,0-2.6-0.1-3.1,12.9
					c-0.1,2-1.5,3-2.9,2.9c-2-0.1-4.3-2.4-4.1-7.1c0.1-3.4,1.9-5.4,2-7.3c-0.5-2.9-4.7-2.8-7-3.2c-0.3,3.4-1.6,4.3-3,4.2
					c-1.3-0.1-2.8-1.1-3.3-1.8c-0.5-0.7-1.1-1-1.7-1c-2-0.1-3.4,4-3.5,6.8c-0.1,2.3,0.2,4.6,0.5,6.8c0.2,1.1,1.6,5.7,1.5,9.2
					c-0.1,2.2-0.8,3.9-2.6,4.2c-0.4,0.1-0.8,0.2-1.2,0.1c-4.1-0.2-6.2-5.8-6.1-9.5c0.2-6.8,3.7-11.8,3.8-18.9
					c0.1-2.5-1.1-7.8-3.6-9.4c-0.9,1.1-3.1,3.3-4.8,3.2c-2.9-0.1-3.2-8.6-3.5-17c-0.2-7.5-1.7-23.3-0.1-30.4
					C346.8,416.6,348.9,412.6,350.4,410.8z M367.2,428.9c-0.2,6.6,0.7,14.3,5,20.1c2.6,3.6,3.8,1.9,6,5.1c1.4,0.1,2.7,0.2,4.1,0.3
					c11.2,0.8,15.6-5.7,16.1-15.7c0.1-1.3-0.3-7.9-0.6-9.4c-0.4-0.6-2.8-2.1-4.4-3c-1.1-0.7-1.8-1.3-2.4-1.3c-0.1,0-0.2,0-0.4,0.1
					c-0.2,0.1-1.7,1.3-2.1,2.5c-0.1,1.2,0.3,2,0.4,3.2c0.3,1,0.7,3.4,0.6,4.8c-0.1,1.4-0.6,9-4.5,8.7c-2.6-0.2-3.8-7.1-3.8-7.9
					c0-0.9,0.1-3.5,0.6-6.6c0.3-2.4,0.9-5.2,1-7.4c0-2.6-0.9-3.1-0.9-4c-5.2-0.1-4,5.3-6.5,8.5c-1.2,1.4-3.2,2.3-6.7,2.1
					C368.2,429,367.7,429,367.2,428.9z"/>
				<g>
					<path fill="#8E2C1D" d="M351.9,411.6c4-4.6,10.4-12.6,17.2-13.8c3.8-0.7,8.1-0.6,12-0.5c1.8,0,3.7,0.1,5.5,0.2
						c1.8,0.1,3-1.1,5.1-1c3.3,0.1,8,3.7,10.8,5.3c3.5,1.9,6.8,4.2,9.7,6.8c6.3,5.5,9.2,13.1,10.3,20.6c0.7,4.6,0.2,9.2-0.4,13.6
						c-0.5,3.7-2.1,6-2.3,9.7c-0.3,9-0.8,18.2-2.9,27c-0.2,0.9-1.1,5.6-2.7,3.1c-1.1-1.7-1.1-4.2-1.2-6.1c-0.1-2,0.3-5.7-1.8-7.1
						c-2.8-1.8-7.8,0.4-10,1.9c-1.6,1.1-2.8,2.9-3.6,4.5c-1.2,2.4-2.6,7.7-4.7,2.7c-1.8-4.2-6-5-7.5-0.6c-0.6,1.5-0.7,3.3-0.9,4.9
						c-0.2,1.5-0.3,3-0.4,4.5c-0.5,7.9-3.8-0.3-3.9-2.1c-0.1-4,4.4-7.8-0.6-10.9c-1.7-1-4.1-1-6-1.3c-0.9-0.1-1.6,0.7-1.7,1.4
						c-0.7,4.3-4.9-0.5-6.7,0c-2.2,0.5-3,2-3.9,3.9c-2.6,5.9,0.6,12.8,1.2,18.8c0.3,3.4-4.7,3.4-5.9,0.4c-0.8-1.9-0.7-3.8-0.6-5.7
						c0.3-4.6,2.4-9,3.3-13.4c0.9-4.6,0.4-10.8-3.6-14.2c-0.6-0.5-1.7-0.7-2.3-0.1c-0.5,0.6-1,1.1-1.6,1.6c-2.6,2.5-2.7-0.2-3-1.7
						c-0.7-2.9-0.7-6-0.8-8.9c-0.2-4.7-0.4-9.4-0.6-14.1C346.7,431,345.5,419.9,351.9,411.6c1.2-1.6-1.7-3.2-2.9-1.6
						c-8.2,10.8-5.4,25.7-4.7,38.1c0.3,5.9-0.7,13.3,1.9,18.8c2.2,4.7,6.7,2,9.3-0.9c-0.8,0-1.5-0.1-2.3-0.1
						c8.6,7.3-1.7,20-0.6,28.6c0.3,2.8,1.3,6.3,3.9,8.1c1.8,1.3,5.1,2.3,7,0.6c2.3-2.1,2.4-5.1,1.9-8c-0.8-5-2.5-9.9-1.5-15
						c0.7-3.5,2.2-2.1,4.3-0.9c1,0.6,2.1,0.6,3.2,0.5c2.7-0.2,3.2-3.7,3.5-5.5c-0.6,0.5-1.1,0.9-1.7,1.4c1.2,0.2,2.5,0.3,3.7,0.6
						c2.6,0.6,0.7,4,0.3,5c-0.8,2.2-0.7,4.6-0.3,6.9c0.5,3.2,3.4,5.5,6.8,5c4.3-0.5,3.3-7.9,3.6-10.5c0.2-1.7,0.4-3.6,1.2-5.1
						c0.2-0.4,0.2-0.2-0.3-0.2c1.1-0.1,1.9,3,2.2,3.8c0.8,2,3.6,3.8,5.7,2.5c5-3.3,3.3-10.4,10.8-11.9c3.2-0.6,2.4,2,2.6,4.1
						c0.1,1.7,0.3,3.3,0.6,4.9c0.5,2.7,2,4.9,5,5.5c5.1,1,5.9-12.7,6.2-15.2c0.5-3.3,0.7-6.7,1-10.1c0.3-3.3,0.4-6.6,0.5-9.9
						c0.1-1.9-0.6-0.7-0.1-1.1c0.5-0.4,0.8-1,1-1.5c1.6-2.9,1.6-7,1.9-10.3c0.5-5.4,0-10.8-1.5-16.2c-3.6-13-14.2-19.3-26-26.3
						c-3.5-2.1-6.9-3.2-11-2.2c-5.1,1.2-11.5,0.5-16.9,0.8c-4.9,0.3-7.9,1.8-11.1,5c-3.5,3.5-7.2,6.7-10.4,10.4
						C347.7,411.5,350.6,413.1,351.9,411.6z"/>
					<path fill="#8E2C1D" d="M365.5,428.8c-0.1,7.3,0.9,14.5,5.2,20.9c1.6,2.4,4.5,3.2,6.2,5.4c0.8,1,3.8,0.7,4.9,0.8
						c13.1,0.9,18.4-8.5,18-19.4c-0.1-2.5-0.2-5-0.6-7.4c-0.3-1.9-5-3.9-6.5-4.9c-1.5-1-2.7-0.8-3.9,0.2c-2.5,1.9-2.1,4.1-1.6,6.8
						c0.6,3,0.7,5.6,0,8.5c-0.6,2.6-2.7,3.2-3.7,0.2c-0.4-1-0.6-2.2-0.7-3.3c-0.2-3.7,0.7-7.5,1.3-11.1c0.4-2.8-0.3-4.6-0.6-7.3
						c-0.1-0.9-1.2-1.2-2-1.2c-2.6,0.2-4.4,1.3-5.3,3.5c-1.7,4.5-2.7,7.6-9.1,6.9c-2.1-0.3-2.2,2.7-0.1,3c2.6,0.3,5.7,0.4,7.9-1.1
						c3.3-2.2,3.1-9,7.3-9.4c-0.7-0.4-1.3-0.8-2-1.2c0.3,2.3,0.9,4.1,0.6,6.5c-0.4,3.5-1,6.9-1.2,10.4c-0.2,3.1,1,6.5,2.9,9.1
						c1.9,2.5,5.2,0.7,6.6-1c2.1-2.7,2.3-7.6,1.8-10.9c-0.2-1.5-1.1-4.2-0.4-5.5c0.5-1,4.1,1.7,4.4,1.9c2.2,1.4,1.5,5.8,1.6,8
						c0.2,5.8-1.4,12.3-7.5,14.9c-2.4,1-5.3,0.9-7.9,0.7c-0.9-0.1-1.8-0.1-2.7-0.2c0.7,0-1.7-1.9-1.9-2c-7.3-4.3-7.9-14.7-7.7-21.7
						C368.9,427.1,365.6,426.9,365.5,428.8z"/>
				</g>
			</g>
			<g>
				<linearGradient id="SVGID_9_" gradientUnits="userSpaceOnUse" x1="467.034" y1="528.789" x2="467.034" y2="400.0728">
					<stop  offset="0" style="stop-color:#E7C21F"/>
					<stop  offset="1" style="stop-color:#FEE014"/>
				</linearGradient>
				<path fill="url(#SVGID_9_)" d="M461.2,476.2c0.2-2.7,0.4-5.3,0.6-8c0.1-1-0.1-2.6-0.7-2.7c-0.3,0-0.6,0.2-1,0.9
					c-0.8,1-0.9,3.3-1.1,4.1c-0.5,1.7-1.6,2.9-1.7,5c-0.1,1.6-0.1,3.2-0.2,3.9c0.2,2.5,0.4,5,0.6,7.5c-0.5,6.5-1,13-1.5,19.5
					c-0.3,1.7-1.2,1.6-4.5,1.1c-1.7-0.2-0.8-3.4-3.7-3.8c-0.7,0.6-1.1,1.8-1.2,3.3c-0.1,1,0,2.2,0.2,3.4c0.3,1.9,1.3,3.6,1.8,6
					c0.4,1.9,0.3,4.4,0.2,6c-0.4,4.8-3.1,6.9-6.4,6.5c-3-0.7-5.7-4.4-5.4-8.7c0.3-3.8,1.5-5.3,2.6-16.1c0.1-1,0.1-3.1-0.6-3.2
					c-0.3,0-0.7,0.3-1.1,1.1c-0.9,1.9-2.4,3.5-3.7,3.4c-1.4-0.2-2.8-2.4-3.2-5.3c-0.6-3.2-0.4-8.8-1.1-12.5c-0.4-2.5-0.4-5-0.8-7
					c-0.5-3-1.3-5-1.2-6.2c0.2-2.9,1.1-4.8,3.2-7.6c0.3-5.3,0.7-10.6,1-15.9c0.5-7.1-0.4-13.4-0.8-20c-0.3-6.4,0.1-13.3,0.1-20.2
					c0.1-1.5,0.2-2.9,0.3-4.4c0.2-2.9,0.8-5.8,3.3-6.2c1.5-0.1,9.2,0.4,11,0.6c1.6,0.6,3.3,1.1,4.9,1.7c0.3,0,4.7,0.7,6.4,0.9
					c4.4,0.6,6.8-0.8,10.6-0.3c3.6,0.5,6.7,3.2,10.3,4.2c2.6,0.7,6.9,0.9,8.4,1.9c0.6,0.8,1.3,1.5,1.9,2.3c1.2,0.6,2.9,0.7,3.6,1.3
					c0.5,0.6,0.1,1.8,1.2,2.3c0.5,0.3,1.6,0.5,2.9,0.7c1.2,0.2,2.7,0.4,4.3,1.2c1.1,0.4,1.4,1.6,2.7,2.6c1.7,1.4,1.8,3,1.6,4.9
					c-0.2,1.2-0.3,2.4-0.5,3.6c-0.1,0.9-0.2,1.6,0,2.4c0.7,3.1,1.8,5.9,1.4,9.8c-0.6,5.6-3.3,12.1-7.1,16c-2.1,2.2-3.1,2.3-3.7,4.7
					c-0.2,0.3-0.2,0.8-0.3,1.3c-0.1,1.3,0,3.2-0.1,4.3c-0.2,1.6-1.5,4-1.7,6.2c-0.2,2.6-0.5,5.5-4,4.9c-1.6-0.3-2.3-1.2-2.5-2.6
					c-0.1-1.8-0.8-3.6-0.7-5.7c-0.1-1.8,0.4-4-2-4.4c-2.4-0.4-10.5,1.9-11.2,5.6c-0.3,3.2-0.5,6.4-0.8,9.7c-0.5,5.4-3.3,5.3-5.1,5.1
					C463.1,484.7,461.2,480.5,461.2,476.2z M456.9,441.7c3.4,0.4,6.9,0.9,10.3,1.4c0.9,0.1,1.9-1.2,3.6-1.8c1.4-0.3,3.4,0.4,4.4-0.5
					c1-0.7,1.8-1.8,1.9-2.6c0.2-2.7-2.5-5.1-5.3-5.5c-1.8-0.3-3.2,0.8-3.4,2.2c0,0.2,0,0.5,0.1,0.9c-0.1,1.1-2.5,2-4,1.8
					c-0.8-0.1-1.2-0.4-0.9-4.2c-0.1-2.4-0.3-5.1-1.9-5.3c-3.1-0.4-1.7,2.2-3.9,2.9C457.5,434.6,457.2,438.2,456.9,441.7z"/>
				<g>
					<path fill="#8E2C1D" d="M462.8,476.4c0.2-3,2.1-9.1-0.5-11.8c-0.5-0.5-1.3-0.7-2-0.5c-1.8,0.6-2.4,2.5-2.7,4.2
						c-0.6,3.5-2.1,6.1-2.2,9.8c-0.1,3.1,0.7,6.9,0.5,9.4c-0.4,4.8-0.7,9.5-1.1,14.3c-0.1,1.4-0.2,2.8-0.3,4.1
						c-0.1,1.7-3.2-1.7-3.4-2.1c-0.6-1-1.5-1.4-2.6-1.7c-0.7-0.2-1.4-0.1-1.9,0.5c-2.6,3.6-1.3,8.2,0.1,12.1c1.1,3,1,6.7,0.2,9.7
						c-1.1,4-5.9,2.4-7.5-0.5c-0.9-1.6-0.7-3.3-0.5-4.9c0.4-2.9,1.2-5.7,1.7-8.6c0.4-2.7,2.2-8.1-0.2-10.5c-0.5-0.5-1.3-0.8-1.9-0.5
						c-1,0.5-3.8,5-5,3c-1.8-2.9-1.2-7.4-1.4-10.6c-0.1-2.8-0.6-5.5-0.9-8.2c-0.3-3.8-2.1-7.7-1.2-11.4c0.4-1.9,2.7-3.5,2.8-5.4
						c0.1-1,0.1-2,0.2-3c0.2-3.7,0.5-7.5,0.7-11.2c0.8-12.6-0.8-25.4-0.6-38.1c0.1-3.1-1-13.2,4.2-13c4.6,0.2,8.4,0.6,12.8,2.1
						c3.7,1.3,8.6,1.4,12.3,1.1c4.5-0.4,7.6,0.2,11.8,2.4c3.2,1.7,6.5,2,10,2.7c1.9,0.3,1.9,1.7,3.3,2.7c0.8,0.6,2.1,0.8,3,1
						c0.3,0.1,0.6,1.3,0.8,1.6c1.4,1.4,2.7,1.7,4.7,2c5.2,0.9,7.5,4.4,6.9,8.7c-0.6,4.7,1.4,9.2,1.2,14c-0.4,7.3-4.6,12.9-9.5,18
						c-1.3,1.4-1.5,3.7-1.6,5.5c-0.1,2.8-1,5-1.5,7.7c-0.2,1.4-0.3,2.8-0.7,4.1c-0.9-0.1-1.8-0.3-2.7-0.4c-0.1-0.9-0.2-1.8-0.4-2.7
						c-0.3-1.8,0.4-5.2-1-6.9c-3.9-5.1-14.3,0.5-15.7,4.6c-0.8,2.2-0.5,5.2-0.7,7.5c-0.1,1.6-0.2,3.2-0.6,4.7
						c-0.5,1.6-1.5,1.8-3,1.6C463.4,483.3,462.9,478.5,462.8,476.4c-0.1-1.9-3.3-2.4-3.2-0.4c0.1,3.3,0.8,7.8,4.4,9.8
						c2.3,1.3,6,1.7,7.7-0.5c1.8-2.4,1.8-5.4,2-8.3c0.4-5.2,0.3-8,6.3-10c6.2-2.1,3.8,6.9,5.8,10.3c1.6,2.6,5.9,2.4,7.5,0.4
						c1-1.3,1.2-3.2,1.3-4.7c0.3-2.6,1.6-4.8,1.7-7.5c0.2-3.8,1.1-5.7,3.8-8.3c2.2-2.2,3.7-5,4.9-7.7c2.2-4.7,3-10,2-15.3
						c-0.5-2.4-1.2-4.5-0.8-6.8c0.3-1.9,0.5-3.7,0.2-5.7c-0.5-3.6-5.3-6.3-8.7-7.2c-1.2-0.3-3.2-0.2-3.7-1.5c-0.2-0.5-0.3-1-0.8-1.4
						c-2.1-1.5-3.4-1.1-5-3.1c-0.9-1-2.3-1.3-3.6-1.6c-3.9-1-7.1-1.4-10.8-3.3c-6.4-3.3-11.9-1.1-18.6-2c-7-1-14.9-4.8-21.9-2.5
						c-3.5,1.2-3.1,6.9-3.3,9.7c-0.4,7.3-0.5,14.7-0.2,22c0.2,6.8,1.2,13.5,0.8,20.2c-0.2,3.6-0.5,7.3-0.7,10.9
						c-0.1,1.4-0.2,2.7-0.3,4.1c-0.1,1.5-2.1,3.6-2.7,5.1c-0.8,2.2-0.5,4.3,0.1,6.5c0.9,3.8,1,7.6,1.6,11.4
						c0.7,4.4-0.9,12.4,2.9,16.1c1.3,1.3,2.3,1.8,4.1,1.5c2.4-0.5,2.4-3.5,4.2-4.4c-0.6-0.2-1.3-0.3-1.9-0.5
						c1.5,1.5-0.5,7.7-0.7,9.5c-0.3,1.9-0.8,3.8-1.2,5.6c-0.8,3.9-0.6,9.4,3.5,12c3.5,2.2,8,1.6,9.8-2.1c1.3-2.8,1.3-5.7,1.2-8.7
						c-0.2-4.3-4.2-9.5-1.3-13.5c-0.6,0.2-1.2,0.3-1.8,0.5c2.1,0.7,1.6,3.6,4.1,3.9c2.1,0.3,4.3,0.7,5.7-1c1.9-2.3,1-8.4,1.2-11.1
						c0.3-3.5,1-7.1,0.7-10.7c-0.2-2.3-0.4-4.5-0.6-6.8c-0.2-2.4,0.3-4.9,1.4-7.1c0.6-1.2,0.5-4.8,1.8-5.3c-0.6-0.2-1.3-0.3-1.9-0.5
						c1.6,1.6-0.1,7.7-0.3,9.5C459.5,477.8,462.7,478.3,462.8,476.4z"/>
					<path fill="#8E2C1D" d="M456.8,443.2c2.9,0.4,5.8,0.8,8.7,1.2c0.9,0.1,1.7,0.3,2.6,0.2c0.8-0.1,1.5-0.7,2-1.1
						c1.4-1,3-0.6,4.7-0.8c3.9-0.4,4.5-5,2.9-7.7c-1.6-2.8-7.7-5.4-10-2.3c-1.1,1.6-0.4,3.7-3.2,3.6c0.7,0.6,0.8,0.5,0.5-0.4
						c0-0.7,0-1.4,0.1-2c0.1-1.1-0.1-2.3-0.3-3.4c-0.4-3-4.5-5.3-6.7-2.5c-1.6,2-2.2,3-2.4,5.5c-0.2,2.8-0.4,5.5-0.6,8.3
						c-0.1,1.9,3.1,2.3,3.3,0.4c0.3-3.5,0.5-7.1,0.8-10.6c-0.3,0.4-0.6,0.8-0.9,1.2c0.8-0.4,1.2-0.7,1.8-1.3
						c0.3-0.3,0.9-2.7,1.5-0.6c0.6,2.1-0.7,5,0.5,7c1.5,2.6,6,1.5,7.4-0.3c0.4-0.5,0.5-1.1,0.5-1.6c3.1-1.7,4.9-0.8,5.3,2.5
						c-0.9,1.2-2.1,1.7-3.6,1.5c-1.1,0-1.7,0.2-2.7,0.6c-0.6,0.3-1.5,1.4-2.1,1.3c-3.3-0.5-6.7-0.9-10-1.4
						C454.9,440,454.7,442.9,456.8,443.2z"/>
				</g>
			</g>
		</g>
	</g>
</g>
</svg>
