<?xml version="1.0" encoding="utf-8"?>
<!-- Generator: Adobe Illustrator 17.1.0, SVG Export Plug-In . SVG Version: 6.00 Build 0)  -->
<!DOCTYPE svg PUBLIC "-//W3C//DTD SVG 1.1//EN" "http://www.w3.org/Graphics/SVG/1.1/DTD/svg11.dtd">
<svg version="1.1" id="Layer_1" xmlns="http://www.w3.org/2000/svg" xmlns:xlink="http://www.w3.org/1999/xlink" x="0px" y="0px"
	 viewBox="0 0 612 792" enable-background="new 0 0 612 792" xml:space="preserve">
<g>
	<g>
		<path fill="#8E2C1D" d="M262.3,378.9c-3.8,0.2-7.6,0.3-11.4,0.3c0.1-1.4,0.2-2.8,0.4-4.3c9.2,0,18.4-0.7,27.6-1.6
			c0,1.4-0.1,2.8-0.1,4.3c-3.8,0.4-7.7,0.7-11.5,1c-0.6,11.5-1.2,23.1-1.8,34.6c-1.7,0.1-3.5,0.2-5.2,0.3
			C260.9,402,261.6,390.5,262.3,378.9z"/>
		<path fill="#8E2C1D" d="M282.8,370.9c1.6-0.2,3.2-0.4,4.8-0.5c-0.1,5.8-0.1,11.6-0.2,17.3c0,0,0.1,0,0.1,0c0.8-1.5,2.1-2.9,3.6-4
			c1.5-1,3.2-1.8,5.1-2c3.7-0.4,9.6,1.2,9.8,10.8c0.1,5.5,0.3,11,0.4,16.5c-1.7,0.2-3.5,0.4-5.2,0.6c-0.1-5.3-0.2-10.6-0.2-15.9
			c-0.1-4.5-1.8-8.1-6.5-7.5c-3.2,0.4-5.8,3-6.8,5.8c-0.3,0.7-0.4,1.5-0.4,2.5c-0.1,5.6-0.1,11.2-0.2,16.8c-1.7,0.2-3.5,0.4-5.2,0.6
			C282.2,398.1,282.5,384.5,282.8,370.9z"/>
		<path fill="#8E2C1D" d="M317.4,395c0.4,6.8,5.1,9.2,10.3,9c3.7-0.2,5.9-0.8,7.8-1.7c0.4,1.2,0.8,2.4,1.2,3.6
			c-1.8,0.8-4.9,1.8-9.5,2c-8.9,0.5-14.4-4.5-14.7-12.9c-0.3-8.3,4.3-15.4,12.3-15.9c8.9-0.4,11.9,7.6,12.4,12.7c0.1,1,0,1.8,0,2.3
			C330.5,394.2,323.9,394.5,317.4,395z M332.1,390.6c-0.2-3.2-1.9-8.2-7.5-7.9c-5,0.3-7,5.2-7.3,8.7
			C322.2,391,327.1,390.7,332.1,390.6z"/>
	</g>
</g>
<g>
	<path fill="#9BA739" d="M255.8,429.8c0,0,59.2-13.8,97.3-10.2"/>
	<path fill="#8E2C1D" d="M254.8,425.4c0,0,1.5-0.3,4.2-0.7c2.7-0.5,6.5-1.1,11.1-1.7c2.3-0.3,4.8-0.7,7.4-1c2.6-0.3,5.4-0.7,8.3-1
		c2.9-0.3,5.9-0.6,8.9-0.9c3-0.3,6.1-0.5,9.2-0.8c3.1-0.2,6.2-0.4,9.2-0.6c3-0.1,6-0.2,8.9-0.3c2.9,0,5.7-0.1,8.3-0.1
		c2.6,0.1,5.2,0.1,7.5,0.2c2.3,0.1,4.4,0.3,6.3,0.4c1.9,0.1,3.5,0.3,4.8,0.5c2.7,0.3,4.2,0.5,4.2,0.5s-1.5,0-4.2-0.1
		c-1.3,0-3-0.1-4.8,0c-1.9,0.1-4,0.1-6.3,0.2c-2.3,0.2-4.8,0.3-7.4,0.5c-2.6,0.3-5.4,0.5-8.2,0.8c-2.8,0.4-5.8,0.8-8.8,1.2
		c-3,0.5-6,0.9-9,1.4c-3,0.5-6,1-9,1.6c-3,0.6-5.9,1.1-8.7,1.7c-2.8,0.6-5.5,1.2-8.1,1.7c-2.6,0.6-5,1.2-7.2,1.7
		c-4.4,1.1-8.1,2-10.7,2.7c-2.6,0.7-4,1.1-4,1.1l-0.1,0c-2.4,0.6-4.9-0.8-5.5-3.2c-0.6-2.4,0.8-4.9,3.2-5.5
		C254.5,425.5,254.6,425.5,254.8,425.4z"/>
</g>
</svg>
